<?xml version="1.0" encoding="utf-8"?>
<!-- Generator: Adobe Illustrator 17.1.0, SVG Export Plug-In . SVG Version: 6.00 Build 0)  -->
<!DOCTYPE svg PUBLIC "-//W3C//DTD SVG 1.1//EN" "http://www.w3.org/Graphics/SVG/1.1/DTD/svg11.dtd">
<svg version="1.1" xmlns="http://www.w3.org/2000/svg" xmlns:xlink="http://www.w3.org/1999/xlink" x="0px" y="0px"
	 viewBox="0 0 16 16" enable-background="new 0 0 16 16" xml:space="preserve">
<g id="Guide_Box" display="none">
	<g display="inline">
		<path fill="#FF7BAC" d="M14.8-6V8h-14V-6H14.8 M15.8-7h-16V9h16V-7L15.8-7z"/>
	</g>
	<g display="inline">
		<path fill="#FF7BAC" d="M14.9,16.3v14h-14v-14H14.9 M15.9,15.3h-16v16h16V15.3L15.9,15.3z"/>
	</g>
</g>
<g id="Icons">
	<g>
		<rect x="3" y="12" width="10" height="3"/>
		<path d="M9,2V1H8v0.9L3,7l4.7,4.7L12,7.4V10c2,0,2-2,2-2V7L9,2z M7.7,10.2L4.4,6.9L8,3.3V6h1V3.4l2.7,2.7L7.7,10.2z"/>
	</g>
	<path fill="#5AAAFA" d="M7,11"/>
</g>
</svg>
