<?xml version="1.0" encoding="utf-8"?>
<!-- Generator: Adobe Illustrator 17.1.0, SVG Export Plug-In . SVG Version: 6.00 Build 0)  -->
<!DOCTYPE svg PUBLIC "-//W3C//DTD SVG 1.1//EN" "http://www.w3.org/Graphics/SVG/1.1/DTD/svg11.dtd">
<svg version="1.1" xmlns="http://www.w3.org/2000/svg" xmlns:xlink="http://www.w3.org/1999/xlink" x="0px" y="0px"
	 viewBox="0 0 16 16" enable-background="new 0 0 16 16" xml:space="preserve">
<g id="Guide_Box" display="none">
</g>
<g id="Icons">
	<g>
		<path d="M6.1,6.3c0.6-0.9,1.6-1.4,2.7-1.4c2.4,0,4.5,2.1,4.5,4.6c0,1.2-0.4,2.3-1.2,3.2c-0.8,0.9-1.9,1.5-3.1,1.5
			c-1.1,0-2.2-0.5-2.9-1.5V14H3v-1.9h1.1V3.9H3V2h3.1V6.3z M6,9.5c0,1.6,1.2,2.8,2.7,2.8c1.5,0,2.6-1.3,2.6-2.8
			c0-1.5-1.2-2.7-2.6-2.7C7.2,6.8,6,8,6,9.5z"/>
	</g>
</g>
</svg>
