<?xml version="1.0" encoding="utf-8"?>
<!-- Generator: Adobe Illustrator 17.1.0, SVG Export Plug-In . SVG Version: 6.00 Build 0)  -->
<!DOCTYPE svg PUBLIC "-//W3C//DTD SVG 1.1//EN" "http://www.w3.org/Graphics/SVG/1.1/DTD/svg11.dtd">
<svg version="1.1" xmlns="http://www.w3.org/2000/svg" xmlns:xlink="http://www.w3.org/1999/xlink" x="0px" y="0px"
	 viewBox="0 0 16 16" enable-background="new 0 0 16 16" xml:space="preserve">
<g id="Guide_Box" display="none">
</g>
<g id="Icons">
	<g>
		<path d="M7.5,10.3H5c-1.2,0-2.3-1-2.3-2.2s1-2.2,2.3-2.2h2.5V4H5C2.7,4,1,5.8,1,8c0,2.2,1.8,4,4,4h2.5V10.3z"/>
		<path d="M12,4H9.5v1.8H12c1.2,0,2.2,1,2.2,2.2s-1,2.2-2.2,2.2H9.5V12H12c2.2,0,4-1.8,4-4C16,5.8,14.2,4,12,4z"/>
	</g>
	<rect x="6" y="7" width="5" height="2"/>
</g>
</svg>
