<?xml version="1.0" encoding="utf-8"?>
<!-- Generator: Adobe Illustrator 17.1.0, SVG Export Plug-In . SVG Version: 6.00 Build 0)  -->
<!DOCTYPE svg PUBLIC "-//W3C//DTD SVG 1.1//EN" "http://www.w3.org/Graphics/SVG/1.1/DTD/svg11.dtd">
<svg version="1.1" xmlns="http://www.w3.org/2000/svg" xmlns:xlink="http://www.w3.org/1999/xlink" x="0px" y="0px"
	 viewBox="0 0 16 16" enable-background="new 0 0 16 16" xml:space="preserve">
<g id="Guide_Box" display="none">
	<g display="inline">
		<path fill="#FF7BAC" d="M5,11v14H-9V11H5 M6,10h-16v16H6V10L6,10z"/>
	</g>
	<g display="inline">
		<path fill="#FF7BAC" d="M28.5,11v14h-14V11H28.5 M29.5,10h-16v16h16V10L29.5,10z"/>
	</g>
</g>
<g id="Icons">
	<g>
		<path d="M13,5V4h-3V2V1H3v1v10h1h2v2v1h7v-1h0L13,5L13,5z M6,5v6H4V2h5v2H6V5z M12,14H7V5h5V14z"/>
		<rect x="8" y="7" width="3" height="1"/>
		<rect x="8" y="9" width="3" height="1"/>
	</g>
</g>
</svg>
