<?xml version="1.0" encoding="utf-8"?>
<!-- Generator: Adobe Illustrator 17.1.0, SVG Export Plug-In . SVG Version: 6.00 Build 0)  -->
<!DOCTYPE svg PUBLIC "-//W3C//DTD SVG 1.1//EN" "http://www.w3.org/Graphics/SVG/1.1/DTD/svg11.dtd">
<svg version="1.1" xmlns="http://www.w3.org/2000/svg" xmlns:xlink="http://www.w3.org/1999/xlink" x="0px" y="0px"
	 viewBox="0 0 16 16" enable-background="new 0 0 16 16" xml:space="preserve">
<g id="Guide_Box" display="none">
</g>
<g id="Icons">
	<path d="M5.8,3.5c0-0.9,0.8-1.7,1.7-1.7s1.7,0.8,1.7,1.7c0,0.9-0.8,1.7-1.7,1.7S5.8,4.4,5.8,3.5z M3.5,9.2c-0.9,0-1.7-0.8-1.7-1.7
		c0-0.9,0.8-1.7,1.7-1.7c0.9,0,1.7,0.8,1.7,1.7C5.2,8.5,4.5,9.2,3.5,9.2z M13,7H8V6v0c1.2-0.2,2-1.2,2-2.5C10,2.1,8.9,1,7.5,1
		S5,2.1,5,3.5C5,4.7,5.8,5.7,7,6v0v1H6C5.8,5.9,4.7,5,3.5,5C2.1,5,1,6.2,1,7.6s1.1,2.5,2.5,2.5C4.8,10.1,5.8,9.2,6,8h1v5l2,2V9h6
		L13,7z"/>
</g>
</svg>
