<?xml version="1.0" encoding="utf-8"?>
<!-- Generator: Adobe Illustrator 17.1.0, SVG Export Plug-In . SVG Version: 6.00 Build 0)  -->
<!DOCTYPE svg PUBLIC "-//W3C//DTD SVG 1.1//EN" "http://www.w3.org/Graphics/SVG/1.1/DTD/svg11.dtd">
<svg version="1.1" xmlns="http://www.w3.org/2000/svg" xmlns:xlink="http://www.w3.org/1999/xlink" x="0px" y="0px"
	 viewBox="0 0 16 16" enable-background="new 0 0 16 16" xml:space="preserve">
<g id="Guide_Box" display="none">
	<g display="inline">
		<path fill="#FF7BAC" d="M5.7-7.5v14h-14v-14H5.7 M6.7-8.5h-16v16h16V-8.5L6.7-8.5z"/>
	</g>
	<g display="inline">
		<path fill="#FF7BAC" d="M29.9-7.5v14h-14v-14H29.9 M30.9-8.5h-16v16h16V-8.5L30.9-8.5z"/>
	</g>
	<g display="inline">
		<path fill="#FF7BAC" d="M5.7,14.5v14h-14v-14H5.7 M6.7,13.5h-16v16h16V13.5L6.7,13.5z"/>
	</g>
	<g display="inline">
		<path fill="#FF7BAC" d="M29.8,14.5v14h-14v-14H29.8 M30.8,13.5h-16v16h16V13.5L30.8,13.5z"/>
	</g>
</g>
<g id="Icons">
	<g>
		<polygon points="14.1,1 14,1 1,1 1,2 1,13 1,14 2.1,14 10,14 10,13 2.1,13 2.1,2 14,2 14,9 15,9 15,1 		"/>
		<polygon points="13,9 12,9 12,11 10,11 10,12 12,12 12,14 13,14 13,12 15,12 15,11 13,11 		"/>
		<path d="M7.1,8V7V4V3h-1h-2H3.8H3.1v5h1h2H7.1z M4.1,4h2v3h-2V4z"/>
		<rect x="8.1" y="3" width="5" height="1"/>
		<rect x="8.1" y="5" width="5" height="1"/>
		<rect x="8.1" y="7" width="5" height="1"/>
		<rect x="3.1" y="9" width="7" height="1"/>
		<rect x="3.1" y="11" width="5" height="1"/>
	</g>
</g>
</svg>
