<?xml version="1.0" encoding="utf-8"?>
<!-- Generator: Adobe Illustrator 17.1.0, SVG Export Plug-In . SVG Version: 6.00 Build 0)  -->
<!DOCTYPE svg PUBLIC "-//W3C//DTD SVG 1.1//EN" "http://www.w3.org/Graphics/SVG/1.1/DTD/svg11.dtd">
<svg version="1.1" xmlns="http://www.w3.org/2000/svg" xmlns:xlink="http://www.w3.org/1999/xlink" x="0px" y="0px"
	 viewBox="0 0 16 16" enable-background="new 0 0 16 16" xml:space="preserve">
<g id="Guide_Box" display="none">
</g>
<g id="Icons">
	<g>
		<path d="M3.3,5.3h1.4L5,6h1L4.5,2h-1L2,6h1L3.3,5.3z M4,3.4l0.4,1H3.7L4,3.4z"/>
		<path d="M3.5,9L2,13h1l0.3-0.8h1.4L5,13h1L4.5,9H3.5z M3.7,11.4l0.4-1l0.4,1H3.7z"/>
		<rect x="7" y="4" width="7" height="1"/>
		<rect x="7" y="2" width="7" height="1"/>
		<rect x="7" y="12" width="7" height="1"/>
		<rect x="7" y="10" width="7" height="1"/>
		<rect x="2" y="7" width="12" height="1"/>
	</g>
</g>
</svg>
