<?xml version="1.0" encoding="utf-8"?>
<!-- Generator: Adobe Illustrator 17.1.0, SVG Export Plug-In . SVG Version: 6.00 Build 0)  -->
<!DOCTYPE svg PUBLIC "-//W3C//DTD SVG 1.1//EN" "http://www.w3.org/Graphics/SVG/1.1/DTD/svg11.dtd">
<svg version="1.1" xmlns="http://www.w3.org/2000/svg" xmlns:xlink="http://www.w3.org/1999/xlink" x="0px" y="0px"
	 viewBox="0 0 16 16" enable-background="new 0 0 16 16" xml:space="preserve">
<g id="Guide_Box" display="none">
</g>
<g id="Icons">
	<g>
		<path d="M3.8,6.3V4.7c0-0.2,0-0.3-0.1-0.4C3.6,4.2,3.5,4.1,3.3,4.1C3.2,4,3.1,4,2.9,3.9c-0.2,0-0.3,0-0.4,0c-0.2,0-0.3,0-0.5,0
			C1.8,4,1.7,4,1.6,4.1C1.4,4.2,1.3,4.3,1.2,4.4C1.1,4.5,1.1,4.7,1.1,4.9h0.8c0-0.2,0.1-0.3,0.2-0.3c0.1-0.1,0.2-0.1,0.4-0.1
			c0.1,0,0.1,0,0.2,0c0.1,0,0.1,0,0.2,0.1c0,0,0.1,0.1,0.1,0.1c0,0.1,0,0.1,0,0.2C3,4.9,2.9,5,2.9,5c-0.1,0-0.1,0.1-0.2,0.1
			c-0.1,0-0.2,0-0.3,0.1c-0.1,0-0.2,0-0.4,0c-0.1,0-0.2,0-0.4,0.1c-0.1,0-0.2,0.1-0.3,0.1C1.2,5.5,1.1,5.6,1.1,5.7C1,5.8,1,6,1,6.1
			c0,0.2,0,0.3,0.1,0.4c0.1,0.1,0.1,0.2,0.2,0.3c0.1,0.1,0.2,0.1,0.3,0.2C1.7,7,1.9,7,2,7c0.2,0,0.4,0,0.5-0.1
			C2.7,6.9,2.9,6.8,3,6.6c0,0,0,0.1,0,0.1c0,0,0,0.1,0,0.1h0.8c0-0.1-0.1-0.2-0.1-0.3C3.8,6.5,3.8,6.4,3.8,6.3z M3,5.8
			c0,0,0,0.1,0,0.2c0,0.1,0,0.2-0.1,0.2c0,0.1-0.1,0.1-0.2,0.2C2.6,6.4,2.5,6.5,2.3,6.5c-0.1,0-0.1,0-0.2,0C2.1,6.4,2,6.4,2,6.4
			c0,0-0.1-0.1-0.1-0.1c0,0,0-0.1,0-0.2c0-0.1,0-0.1,0-0.2c0,0,0.1-0.1,0.1-0.1c0,0,0.1-0.1,0.2-0.1c0.1,0,0.1,0,0.2,0
			c0.1,0,0.1,0,0.2,0c0.1,0,0.1,0,0.2,0c0.1,0,0.1,0,0.2,0c0.1,0,0.1,0,0.1-0.1V5.8z"/>
		<path d="M5.6,6.6L5.6,6.6C5.7,6.8,5.9,6.9,6,7C6.2,7,6.4,7.1,6.6,7.1c0.1,0,0.3,0,0.4-0.1c0.1-0.1,0.3-0.2,0.4-0.3
			c0.1-0.1,0.2-0.3,0.3-0.5C7.8,6,7.8,5.8,7.8,5.5c0-0.3,0-0.5-0.1-0.7C7.7,4.6,7.6,4.5,7.4,4.3C7.3,4.2,7.2,4.1,7.1,4.1
			C6.9,4,6.8,4,6.6,4C6.4,4,6.3,4,6.1,4.1C5.9,4.1,5.8,4.3,5.7,4.4h0V2.9H4.9V7h0.8V6.6z M5.7,5.2c0-0.1,0.1-0.2,0.1-0.3
			C5.9,4.8,5.9,4.7,6,4.7c0.1-0.1,0.2-0.1,0.3-0.1c0.1,0,0.2,0,0.3,0.1c0.1,0.1,0.2,0.1,0.2,0.2C6.9,5,7,5.1,7,5.2
			c0,0.1,0,0.2,0,0.4c0,0.1,0,0.2,0,0.4C7,6,6.9,6.1,6.9,6.2C6.8,6.3,6.7,6.3,6.6,6.4C6.6,6.4,6.5,6.5,6.3,6.5c-0.1,0-0.2,0-0.3-0.1
			C5.9,6.3,5.9,6.3,5.8,6.2C5.8,6.1,5.7,6,5.7,5.9c0-0.1,0-0.2,0-0.4C5.7,5.4,5.7,5.3,5.7,5.2z"/>
		<path d="M9.3,6.6c0.1,0.1,0.3,0.2,0.5,0.3C10,7,10.2,7,10.4,7c0.4,0,0.7-0.1,1-0.3c0.2-0.2,0.4-0.5,0.5-0.9H11
			C11,6,11,6.2,10.9,6.3c-0.1,0.1-0.3,0.2-0.4,0.2c-0.1,0-0.2,0-0.3-0.1C10,6.3,9.9,6.2,9.9,6.1C9.8,6,9.8,5.9,9.8,5.8
			c0-0.1,0-0.2,0-0.3c0-0.1,0-0.2,0-0.3c0-0.1,0.1-0.2,0.1-0.3c0.1-0.1,0.1-0.2,0.2-0.2c0.1-0.1,0.2-0.1,0.3-0.1
			c0.3,0,0.5,0.2,0.6,0.5h0.8c0-0.2-0.1-0.4-0.1-0.5c-0.1-0.1-0.2-0.3-0.3-0.3c-0.1-0.1-0.3-0.2-0.4-0.2c-0.2,0-0.3-0.1-0.5-0.1
			c-0.2,0-0.5,0-0.6,0.1C9.6,4.1,9.5,4.3,9.3,4.4C9.2,4.5,9.1,4.7,9,4.9C9,5.1,8.9,5.3,8.9,5.5C8.9,5.8,9,6,9,6.1
			C9.1,6.3,9.2,6.5,9.3,6.6z"/>
		<polygon points="13.6,7 8.4,12.2 6.1,9.8 4.6,11.2 8.4,15 15,8.4 		"/>
	</g>
</g>
</svg>
