<?xml version="1.0" encoding="utf-8"?>
<!-- Generator: Adobe Illustrator 17.1.0, SVG Export Plug-In . SVG Version: 6.00 Build 0)  -->
<!DOCTYPE svg PUBLIC "-//W3C//DTD SVG 1.1//EN" "http://www.w3.org/Graphics/SVG/1.1/DTD/svg11.dtd">
<svg version="1.1" xmlns="http://www.w3.org/2000/svg" xmlns:xlink="http://www.w3.org/1999/xlink" x="0px" y="0px"
	 viewBox="0 0 16 16" enable-background="new 0 0 16 16" xml:space="preserve">
<g id="Guide_Box" display="none">
</g>
<g id="Icons">
	<g>
		<path d="M14,1H2H1v14h14V1H14z M14,14H2V2h12V14z"/>
		<polygon points="4.1,9.6 4.9,9.6 4.9,6.7 6,6.7 6,6 3.1,6 3.1,6.7 4.1,6.7 		"/>
		<path d="M6.7,9.6l0.3-0.8h1.3l0.3,0.8h0.8L8,6H7.2L5.9,9.6H6.7z M7.6,6.9L7.6,6.9l0.5,1.3H7.1L7.6,6.9z"/>
		<path d="M12.2,9.5c0.2,0,0.3-0.1,0.4-0.2c0.1-0.1,0.2-0.2,0.3-0.3S13,8.7,13,8.5c0-0.2-0.1-0.4-0.2-0.6s-0.3-0.3-0.5-0.3
			c0.2-0.1,0.3-0.2,0.4-0.3c0.1-0.1,0.1-0.3,0.1-0.5c0-0.2,0-0.3-0.1-0.4s-0.1-0.2-0.2-0.3S12.2,6.1,12.1,6c-0.1,0-0.3,0-0.5,0H10
			v3.6h1.7C11.9,9.6,12,9.5,12.2,9.5z M10.8,6.6h0.7c0.1,0,0.1,0,0.2,0s0.1,0,0.2,0.1c0,0,0.1,0.1,0.1,0.1c0,0.1,0,0.1,0,0.2
			c0,0.1,0,0.3-0.1,0.3c-0.1,0.1-0.2,0.1-0.3,0.1h-0.8V6.6z M10.8,9V8h0.9c0.2,0,0.3,0,0.4,0.1c0.1,0.1,0.2,0.2,0.2,0.4
			c0,0.1,0,0.2,0,0.2S12,8.8,12,8.9s-0.1,0.1-0.2,0.1c-0.1,0-0.1,0-0.2,0H10.8z"/>
	</g>
</g>
</svg>
