<?xml version="1.0" encoding="utf-8"?>
<!-- Generator: Adobe Illustrator 17.1.0, SVG Export Plug-In . SVG Version: 6.00 Build 0)  -->
<!DOCTYPE svg PUBLIC "-//W3C//DTD SVG 1.1//EN" "http://www.w3.org/Graphics/SVG/1.1/DTD/svg11.dtd">
<svg version="1.1" xmlns="http://www.w3.org/2000/svg" xmlns:xlink="http://www.w3.org/1999/xlink" x="0px" y="0px"
	 viewBox="0 0 16 16" enable-background="new 0 0 16 16" xml:space="preserve">
<g id="Guide_Box" display="none">
	<g display="inline">
		<path fill="#FF7BAC" d="M25,6.3v14H11v-14H25 M26,5.3H10v16h16V5.3L26,5.3z"/>
	</g>
</g>
<g id="Icons">
	<path d="M5.9,5.5L5,6.4c0.5,0.5,0.7,1.1,0.7,1.8c0,0.7-0.3,1.3-0.7,1.8l0.9,0.9C6.6,10.2,7,9.2,7,8.2C7,7.1,6.6,6.2,5.9,5.5z"/>
	<path d="M9.5,8.2c0-1.7-0.7-3.3-1.8-4.4L6.8,4.6c0.9,0.9,1.5,2.2,1.5,3.5c0,1.4-0.6,2.6-1.5,3.5l0.9,0.9C8.8,11.5,9.5,9.9,9.5,8.2z
		"/>
	<path d="M12,8.2c0-2.4-1-4.6-2.6-6.2L8.5,2.9c1.4,1.4,2.2,3.2,2.2,5.3c0,2.1-0.8,3.9-2.2,5.3l0.9,0.9C11,12.8,12,10.6,12,8.2z"/>
</g>
</svg>
