<?xml version="1.0" encoding="utf-8"?>
<!-- Generator: Adobe Illustrator 17.1.0, SVG Export Plug-In . SVG Version: 6.00 Build 0)  -->
<!DOCTYPE svg PUBLIC "-//W3C//DTD SVG 1.1//EN" "http://www.w3.org/Graphics/SVG/1.1/DTD/svg11.dtd">
<svg version="1.1" xmlns="http://www.w3.org/2000/svg" xmlns:xlink="http://www.w3.org/1999/xlink" x="0px" y="0px"
	 viewBox="0 0 16 16" enable-background="new 0 0 16 16" xml:space="preserve">
<g id="Guide_Box" display="none">
</g>
<g id="Icons">
	<path d="M14.2,1.8c-0.6-0.6-1.4-1-2.3-1h0c-0.9,0-1.7,0.3-2.3,1L7.9,3.5c-0.6,0.6-1,1.5-1,2.3c0,0.4,0.1,0.9,0.2,1.3
		C6.7,6.9,6.3,6.8,5.9,6.8h0c-0.9,0-1.7,0.3-2.3,1L1.9,9.4c-0.6,0.6-1,1.5-1,2.3c0,0.9,0.3,1.7,1,2.3c0.6,0.6,1.4,1,2.3,1
		c0.9,0,1.7-0.3,2.3-1l1.6-1.6c1-1,1.2-2.4,0.7-3.6C9.3,9,9.7,9.1,10.2,9.1c0.9,0,1.7-0.3,2.3-1l1.6-1.6C15.4,5.2,15.4,3.1,14.2,1.8
		z M7.5,11.8l-1.6,1.6c-0.5,0.5-1,0.7-1.6,0.7c-0.6,0-1.2-0.2-1.6-0.7c-0.9-0.9-0.9-2.4,0-3.3l1.6-1.6c0.5-0.5,1-0.7,1.6-0.7
		c0.4,0,0.8,0.1,1.2,0.4l-2,2l0.7,0.7l2-2C8.4,9.8,8.3,11,7.5,11.8z M13.4,5.8l-1.6,1.6c-0.5,0.5-1,0.7-1.6,0.7
		C9.7,8.1,9.3,8,8.9,7.8L11,5.7L10.3,5L8.2,7.1C7.7,6.2,7.8,5,8.6,4.2l1.6-1.6c0.5-0.5,1-0.7,1.6-0.7c0.6,0,1.2,0.2,1.6,0.7
		C14.3,3.4,14.3,4.9,13.4,5.8z"/>
</g>
</svg>
