<?xml version="1.0" encoding="utf-8"?>
<!-- Generator: Adobe Illustrator 17.1.0, SVG Export Plug-In . SVG Version: 6.00 Build 0)  -->
<!DOCTYPE svg PUBLIC "-//W3C//DTD SVG 1.1//EN" "http://www.w3.org/Graphics/SVG/1.1/DTD/svg11.dtd">
<svg version="1.1" xmlns="http://www.w3.org/2000/svg" xmlns:xlink="http://www.w3.org/1999/xlink" x="0px" y="0px"
	 viewBox="0 0 16 16" enable-background="new 0 0 16 16" xml:space="preserve">
<g id="Guide_Box" display="none">
	<g display="inline">
		<path fill="#FF7BAC" d="M5-9V5H-9V-9H5 M6-10h-16V6H6V-10L6-10z"/>
	</g>
	<g display="inline">
		<path fill="#FF7BAC" d="M28.5-9V5h-14V-9H28.5 M29.5-10h-16V6h16V-10L29.5-10z"/>
	</g>
	<g display="inline">
		<path fill="#FF7BAC" d="M5,14v14H-9V14H5 M6,13h-16v16H6V13L6,13z"/>
	</g>
	<g display="inline">
		<path fill="#FF7BAC" d="M28.5,14v14h-14V14H28.5 M29.5,13h-16v16h16V13L29.5,13z"/>
	</g>
</g>
<g id="Icons">
	<g>
		<rect x="5" y="4" width="10" height="1"/>
		<rect x="5" y="10" width="10" height="1"/>
		<polygon points="3,3 3,2 2,2 1,2 1,3 2,3 2,6 1,6 1,7 2,7 3,7 4,7 4,6 3,6 		"/>
		<polygon points="1,8 1,9 3,9 3,10 1,10 1,11 1,12 1,13 4,13 4,12 2,12 2,11 4,11 4,10 4,9 4,8 3,8 		"/>
	</g>
</g>
</svg>
