<?xml version="1.0" encoding="utf-8"?>
<!-- Generator: Adobe Illustrator 17.1.0, SVG Export Plug-In . SVG Version: 6.00 Build 0)  -->
<!DOCTYPE svg PUBLIC "-//W3C//DTD SVG 1.1//EN" "http://www.w3.org/Graphics/SVG/1.1/DTD/svg11.dtd">
<svg version="1.1" xmlns="http://www.w3.org/2000/svg" xmlns:xlink="http://www.w3.org/1999/xlink" x="0px" y="0px"
	 viewBox="0 0 16 16" enable-background="new 0 0 16 16" xml:space="preserve">
<g id="Guide_Box" display="none">
	<g display="inline">
		<path fill="#FF7BAC" d="M11.5-9V5h-14V-9H11.5 M12.5-10h-16V6h16V-10L12.5-10z"/>
	</g>
	<g display="inline">
		<path fill="#FF7BAC" d="M11.3,13.9v14h-14v-14H11.3 M12.3,12.9h-16v16h16V12.9L12.3,12.9z"/>
	</g>
</g>
<g id="Icons">
	<g>
		<rect x="6" y="2" width="1" height="11"/>
		<rect x="8" y="4" width="6" height="1"/>
		<rect x="8" y="6" width="4" height="1"/>
		<rect x="8" y="8" width="7" height="1"/>
		<rect x="8" y="10" width="4" height="1"/>
		<polygon points="4.4,5.4 3.7,4.7 1,7.6 3.8,10.3 4.5,9.6 2.4,7.5 		"/>
	</g>
</g>
</svg>
