<?xml version="1.0" encoding="utf-8"?>
<!-- Generator: Adobe Illustrator 17.1.0, SVG Export Plug-In . SVG Version: 6.00 Build 0)  -->
<!DOCTYPE svg PUBLIC "-//W3C//DTD SVG 1.1//EN" "http://www.w3.org/Graphics/SVG/1.1/DTD/svg11.dtd">
<svg version="1.1" xmlns="http://www.w3.org/2000/svg" xmlns:xlink="http://www.w3.org/1999/xlink" x="0px" y="0px"
	 viewBox="0 0 16 16" enable-background="new 0 0 16 16" xml:space="preserve">
<g id="Guide_Box" display="none">
	<g display="inline">
		<path fill="#FF7BAC" d="M14.9,6.3v14h-14v-14H14.9 M15.9,5.3h-16v16h16V5.3L15.9,5.3z"/>
	</g>
</g>
<g id="Icons">
	<g>
		<polygon points="1,5.5 1.9,4.6 4.8,7.5 1.9,10.4 1,9.5 3,7.5 		"/>
	</g>
	<polygon points="6,14 7,14 7,9 13,9 13,14 14,14 14,8 6,8 	"/>
	<polygon points="6,1 7,1 7,6 13,6 13,1 14,1 14,7 6,7 	"/>
</g>
</svg>
