<?xml version="1.0" encoding="utf-8"?>
<!-- Generator: Adobe Illustrator 17.1.0, SVG Export Plug-In . SVG Version: 6.00 Build 0)  -->
<!DOCTYPE svg PUBLIC "-//W3C//DTD SVG 1.1//EN" "http://www.w3.org/Graphics/SVG/1.1/DTD/svg11.dtd">
<svg version="1.1" xmlns="http://www.w3.org/2000/svg" xmlns:xlink="http://www.w3.org/1999/xlink" x="0px" y="0px"
	 viewBox="0 0 16 16" enable-background="new 0 0 16 16" xml:space="preserve">
<g id="Guide_Box" display="none">
	<g display="inline">
		<path fill="#FF7BAC" d="M5-13.7v14H-9v-14H5 M6-14.7h-16v16H6V-14.7L6-14.7z"/>
	</g>
	<g display="inline">
		<path fill="#FF7BAC" d="M28.5-13.7v14h-14v-14H28.5 M29.5-14.7h-16v16h16V-14.7L29.5-14.7z"/>
	</g>
	<g display="inline">
		<path fill="#FF7BAC" d="M4.6,9.3v14h-14v-14H4.6 M5.6,8.3h-16v16h16V8.3L5.6,8.3z"/>
	</g>
	<g display="inline">
		<path fill="#FF7BAC" d="M28.6,9.3v14h-14v-14H28.6 M29.6,8.3h-16v16h16V8.3L29.6,8.3z"/>
	</g>
</g>
<g id="Icons">
	<g>
		<path d="M10,4V1H3v11h3v3h7V4H10z M12,14H7V5h5V14z"/>
		<rect x="8" y="7" width="3" height="1"/>
		<rect x="8" y="9" width="3" height="1"/>
	</g>
</g>
</svg>
