<?xml version="1.0" encoding="utf-8"?>
<!-- Generator: Adobe Illustrator 17.1.0, SVG Export Plug-In . SVG Version: 6.00 Build 0)  -->
<!DOCTYPE svg PUBLIC "-//W3C//DTD SVG 1.1//EN" "http://www.w3.org/Graphics/SVG/1.1/DTD/svg11.dtd">
<svg version="1.1" xmlns="http://www.w3.org/2000/svg" xmlns:xlink="http://www.w3.org/1999/xlink" x="0px" y="0px"
	 viewBox="0 0 16 16" enable-background="new 0 0 16 16" xml:space="preserve">
<g id="Guide_Box" display="none">
	<g display="inline">
		<path fill="#FF7BAC" d="M25-13.7v14H11v-14H25 M26-14.7H10v16h16V-14.7L26-14.7z"/>
	</g>
	<g display="inline">
		<path fill="#FF7BAC" d="M24.6,9.3v14h-14v-14H24.6 M25.6,8.3h-16v16h16V8.3L25.6,8.3z"/>
	</g>
</g>
<g id="Icons">
	<g>
		<path d="M11,4V1H2v11h3v3h0h9l0-11H11z M13,14H6V5h7h0V14z"/>
		<rect x="7" y="7" width="1" height="4"/>
		<rect x="8" y="11" width="1" height="1"/>
		<rect x="10" y="11" width="1" height="1"/>
		<rect x="11" y="7" width="1" height="4"/>
		<rect x="9" y="7" width="1" height="4"/>
	</g>
</g>
</svg>
