<?xml version="1.0" encoding="utf-8"?>
<!-- Generator: Adobe Illustrator 17.1.0, SVG Export Plug-In . SVG Version: 6.00 Build 0)  -->
<!DOCTYPE svg PUBLIC "-//W3C//DTD SVG 1.1//EN" "http://www.w3.org/Graphics/SVG/1.1/DTD/svg11.dtd">
<svg version="1.1" xmlns="http://www.w3.org/2000/svg" xmlns:xlink="http://www.w3.org/1999/xlink" x="0px" y="0px"
	 viewBox="0 0 16 16" enable-background="new 0 0 16 16" xml:space="preserve">
<g id="Guide_Box" display="none">
	<g display="inline">
		<path fill="#FF7BAC" d="M11.7-13.7v14h-14v-14H11.7 M12.7-14.7h-16v16h16V-14.7L12.7-14.7z"/>
	</g>
	<g display="inline">
		<path fill="#FF7BAC" d="M11.3,9.3v14h-14v-14H11.3 M12.3,8.3h-16v16h16V8.3L12.3,8.3z"/>
	</g>
</g>
<g id="Icons">
	<g>
		<path d="M2,1v1v7v1v4h12v-4V9V2V1H2z M13,13H3v-3h10V13z M13,9H3V2h10V9z"/>
		<rect x="4" y="4" width="1" height="1"/>
		<rect x="4" y="6" width="1" height="1"/>
		<rect x="6" y="4" width="6" height="1"/>
		<rect x="6" y="6" width="6" height="1"/>
		<rect x="4" y="11" width="8" height="1"/>
	</g>
</g>
</svg>
