<?xml version="1.0" encoding="utf-8"?>
<!-- Generator: Adobe Illustrator 17.1.0, SVG Export Plug-In . SVG Version: 6.00 Build 0)  -->
<!DOCTYPE svg PUBLIC "-//W3C//DTD SVG 1.1//EN" "http://www.w3.org/Graphics/SVG/1.1/DTD/svg11.dtd">
<svg version="1.1" xmlns="http://www.w3.org/2000/svg" xmlns:xlink="http://www.w3.org/1999/xlink" x="0px" y="0px"
	 viewBox="0 0 16 16" enable-background="new 0 0 16 16" xml:space="preserve">
<g id="Guide_Box" display="none">
	<g display="inline">
		<path fill="#FF7BAC" d="M14.8,11v14h-14V11H14.8 M15.8,10h-16v16h16V10L15.8,10z"/>
	</g>
</g>
<g id="Icons">
	<path d="M2.8,9.6c0-2.9,2.1-5.2,4.9-5.4v0l0.1,0c0.1,0,0.2,0,0.3,0c0.3,0,0.5,0,0.8,0l2,0L8.8,2l0.7-0.7l3.4,3.4L9.5,8L8.8,7.3
		L11,5.1c-0.2,0-0.4,0-0.6,0l-0.9,0c-0.3,0-0.5,0-0.8,0c-0.8,0-1.5,0.1-2.2,0.4C4.8,6.2,3.8,7.8,3.8,9.6c0,2.5,2,4.5,4.5,4.5
		c1.4,0,2.6-0.6,3.4-1.6v0l0.8,0.6c-1,1.2-2.5,2-4.2,2C5.2,15.1,2.8,12.6,2.8,9.6z"/>
</g>
</svg>
