<?xml version="1.0" encoding="utf-8"?>
<!-- Generator: Adobe Illustrator 17.1.0, SVG Export Plug-In . SVG Version: 6.00 Build 0)  -->
<!DOCTYPE svg PUBLIC "-//W3C//DTD SVG 1.1//EN" "http://www.w3.org/Graphics/SVG/1.1/DTD/svg11.dtd">
<svg version="1.1" xmlns="http://www.w3.org/2000/svg" xmlns:xlink="http://www.w3.org/1999/xlink" x="0px" y="0px"
	 viewBox="0 0 16 16" enable-background="new 0 0 16 16" xml:space="preserve">
<g id="Guide_Box" display="none">
</g>
<g id="Icons">
	<g>
		<path d="M2.5,7.6C2.6,7.8,2.8,7.9,3,7.9C3.2,8,3.5,8,3.7,8C4,8,4.3,8,4.6,7.9c0.3-0.1,0.6-0.2,0.8-0.5c0,0.1,0,0.2,0,0.2
			c0,0.1,0,0.2,0.1,0.2h1.4C6.8,7.8,6.7,7.6,6.7,7.4c0-0.2,0-0.4,0-0.6V4.2c0-0.3-0.1-0.5-0.2-0.7C6.3,3.3,6.2,3.1,6,3
			C5.7,2.9,5.5,2.9,5.3,2.8C5,2.8,4.7,2.8,4.5,2.8c-0.3,0-0.6,0-0.8,0.1C3.4,2.9,3.2,3,2.9,3.1S2.5,3.4,2.4,3.6
			C2.3,3.8,2.2,4.1,2.2,4.4h1.4c0-0.3,0.1-0.5,0.3-0.6c0.2-0.1,0.4-0.2,0.6-0.2c0.1,0,0.2,0,0.3,0c0.1,0,0.2,0,0.3,0.1
			c0.1,0,0.1,0.1,0.2,0.2c0,0.1,0.1,0.2,0.1,0.4c0,0.1,0,0.2-0.1,0.3C5.1,4.7,5,4.8,4.8,4.8c-0.2,0-0.3,0.1-0.5,0.1
			C4.1,4.9,3.9,5,3.7,5C3.5,5,3.3,5.1,3.1,5.1C2.9,5.2,2.7,5.3,2.5,5.4C2.4,5.5,2.2,5.6,2.1,5.8C2,6,2,6.2,2,6.5C2,6.8,2,7,2.1,7.2
			C2.2,7.4,2.3,7.5,2.5,7.6z M3.4,6.1c0-0.1,0.1-0.2,0.2-0.2c0.1-0.1,0.2-0.1,0.3-0.1c0.1,0,0.2-0.1,0.3-0.1c0.1,0,0.2,0,0.3,0
			c0.1,0,0.2,0,0.3,0c0.1,0,0.2,0,0.3-0.1c0.1,0,0.2-0.1,0.2-0.1v0.5c0,0.1,0,0.2,0,0.3c0,0.1-0.1,0.3-0.1,0.4C5.1,6.8,5,6.9,4.8,7
			C4.7,7.1,4.5,7.1,4.2,7.1c-0.1,0-0.2,0-0.3,0C3.8,7,3.7,7,3.6,7c-0.1,0-0.1-0.1-0.2-0.2c0-0.1-0.1-0.2-0.1-0.3
			C3.4,6.3,3.4,6.2,3.4,6.1z"/>
		<path d="M12,11.6c-0.1,0-0.2,0-0.3,0c-0.1,0-0.2,0-0.3,0c-0.1,0-0.2,0-0.3,0.1c-0.1,0-0.2,0.1-0.3,0.1c-0.1,0.1-0.1,0.1-0.2,0.2
			c0,0.1-0.1,0.2-0.1,0.3c0,0.1,0,0.2,0.1,0.3c0,0.1,0.1,0.1,0.2,0.2c0.1,0,0.2,0.1,0.3,0.1c0.1,0,0.2,0,0.3,0c0.3,0,0.5,0,0.6-0.1
			c0.1-0.1,0.3-0.2,0.3-0.3c0.1-0.1,0.1-0.3,0.1-0.4c0-0.1,0-0.2,0-0.3v-0.5c-0.1,0.1-0.1,0.1-0.2,0.1C12.2,11.6,12.1,11.6,12,11.6z
			"/>
		<path d="M1,15h14V1L1,15z M12.6,13.9c0-0.1,0-0.2-0.1-0.2c0-0.1,0-0.2,0-0.2c-0.2,0.2-0.5,0.4-0.8,0.5C11.5,14,11.2,14,10.8,14
			c-0.2,0-0.5,0-0.7-0.1c-0.2-0.1-0.4-0.1-0.5-0.3c-0.2-0.1-0.3-0.3-0.4-0.5c-0.1-0.2-0.1-0.4-0.1-0.7c0-0.3,0-0.5,0.1-0.7
			c0.1-0.2,0.2-0.3,0.4-0.4c0.2-0.1,0.3-0.2,0.5-0.2c0.2-0.1,0.4-0.1,0.6-0.1c0.2,0,0.4-0.1,0.6-0.1c0.2,0,0.4,0,0.5-0.1
			c0.2,0,0.3-0.1,0.4-0.2c0.1-0.1,0.1-0.2,0.1-0.3c0-0.1,0-0.3-0.1-0.4c0-0.1-0.1-0.2-0.2-0.2c-0.1,0-0.2-0.1-0.3-0.1
			c-0.1,0-0.2,0-0.3,0c-0.3,0-0.5,0.1-0.6,0.2c-0.2,0.1-0.2,0.3-0.3,0.6H9.3c0-0.3,0.1-0.6,0.2-0.8c0.1-0.2,0.3-0.4,0.5-0.5
			s0.5-0.2,0.7-0.3c0.3-0.1,0.5-0.1,0.8-0.1c0.3,0,0.5,0,0.8,0.1c0.3,0,0.5,0.1,0.7,0.2c0.2,0.1,0.4,0.2,0.5,0.4
			c0.1,0.2,0.2,0.4,0.2,0.7v2.6c0,0.2,0,0.4,0,0.6c0,0.2,0.1,0.4,0.1,0.5H12.6z"/>
	</g>
</g>
</svg>
