<?xml version="1.0" encoding="utf-8"?>
<!-- Generator: Adobe Illustrator 17.1.0, SVG Export Plug-In . SVG Version: 6.00 Build 0)  -->
<!DOCTYPE svg PUBLIC "-//W3C//DTD SVG 1.1//EN" "http://www.w3.org/Graphics/SVG/1.1/DTD/svg11.dtd">
<svg version="1.1" xmlns="http://www.w3.org/2000/svg" xmlns:xlink="http://www.w3.org/1999/xlink" x="0px" y="0px"
	 viewBox="0 0 16 16" enable-background="new 0 0 16 16" xml:space="preserve">
<g id="Guide_Box" display="none">
</g>
<g id="Icons">
	<g>
		<path d="M3.1,4.8h1.3l0.3,0.8h0.8L4.2,2H3.4L2,5.6h0.8L3.1,4.8z M3.8,2.9L3.8,2.9l0.5,1.3H3.3L3.8,2.9z"/>
		<path d="M13.9,12.4c-0.1-0.2-0.3-0.3-0.5-0.3c0.2-0.1,0.3-0.2,0.4-0.3c0.1-0.1,0.1-0.3,0.1-0.5c0-0.2,0-0.3-0.1-0.4
			s-0.1-0.2-0.2-0.3s-0.2-0.1-0.4-0.1c-0.1,0-0.3,0-0.5,0H11V14h1.7c0.2,0,0.3,0,0.5-0.1s0.3-0.1,0.4-0.2c0.1-0.1,0.2-0.2,0.3-0.3
			S14,13.2,14,13C14,12.8,14,12.6,13.9,12.4z M11.8,11.1h0.7c0.1,0,0.1,0,0.2,0s0.1,0,0.2,0.1c0,0,0.1,0.1,0.1,0.1
			c0,0.1,0,0.1,0,0.2c0,0.1,0,0.3-0.1,0.3c-0.1,0.1-0.2,0.1-0.3,0.1h-0.8V11.1z M13.2,13.2c0,0.1-0.1,0.1-0.1,0.1s-0.1,0.1-0.2,0.1
			c-0.1,0-0.1,0-0.2,0h-0.8v-1h0.9c0.2,0,0.3,0,0.4,0.1c0.1,0.1,0.2,0.2,0.2,0.4C13.2,13.1,13.2,13.1,13.2,13.2z"/>
		<path d="M6.9,10.1l1.7,1.7c-0.5,0-1.1,0-1.5,0c-0.7,0-1.6-0.1-2.3-0.4c-1.4-0.8-2.1-2.6-1.6-4.3L2.5,6.9c-0.6,2,0.2,4.2,1.9,5.2
			c0.8,0.4,1.8,0.5,2.6,0.5c0.3,0,0.5,0,0.8,0c0.3,0,0.5,0,0.8,0l-1.8,1.8L7.6,15l2.1-2.1l0.7-0.7L7.6,9.4L6.9,10.1z"/>
		<path d="M12.7,3.9c0.1-0.1,0.2-0.2,0.3-0.3V6h1V3V2h-4v1h2.5c-0.1,0.1-0.2,0.2-0.3,0.3C10.5,4.9,9,6.3,10.6,9.7l0.7-0.3
			C9.9,6.5,11,5.4,12.7,3.9z"/>
	</g>
</g>
</svg>
