<?xml version="1.0" encoding="utf-8"?>
<!-- Generator: Adobe Illustrator 17.1.0, SVG Export Plug-In . SVG Version: 6.00 Build 0)  -->
<!DOCTYPE svg PUBLIC "-//W3C//DTD SVG 1.1//EN" "http://www.w3.org/Graphics/SVG/1.1/DTD/svg11.dtd">
<svg version="1.1" xmlns="http://www.w3.org/2000/svg" xmlns:xlink="http://www.w3.org/1999/xlink" x="0px" y="0px"
	 viewBox="0 0 16 16" enable-background="new 0 0 16 16" xml:space="preserve">
<g id="Guide_Box" display="none">
	<g display="inline">
		<path fill="#FF7BAC" d="M4.6-10.7v14h-14v-14H4.6 M5.6-11.7h-16v16h16V-11.7L5.6-11.7z"/>
	</g>
	<g display="inline">
		<path fill="#FF7BAC" d="M28.6-10.7v14h-14v-14H28.6 M29.6-11.7h-16v16h16V-11.7L29.6-11.7z"/>
	</g>
	<g display="inline">
		<path fill="#FF7BAC" d="M4.6,12.5v14h-14v-14H4.6 M5.6,11.5h-16v16h16V11.5L5.6,11.5z"/>
	</g>
	<g display="inline">
		<path fill="#FF7BAC" d="M28.8,12.5v14h-14v-14H28.8 M29.8,11.5h-16v16h16V11.5L29.8,11.5z"/>
	</g>
</g>
<g id="Icons">
	<g>
		<path d="M1,1v14h14V1H1z M14,14H2V2h12V14z"/>
		<path d="M5.3,8.6h1.7c0.4,0,0.8-0.1,1.1-0.2s0.6-0.3,0.8-0.5s0.3-0.5,0.4-0.7c0.1-0.3,0.1-0.6,0.1-0.8c0-0.3,0-0.6-0.1-0.9
			C9.2,5.2,9,4.9,8.8,4.7C8.6,4.5,8.4,4.3,8,4.2C7.7,4.1,7.4,4,6.9,4H3.7v7.1h1.6V8.6z M5.3,5.2h1.2c0.2,0,0.4,0,0.5,0
			c0.2,0,0.3,0.1,0.4,0.2s0.2,0.2,0.3,0.3s0.1,0.3,0.1,0.5c0,0.2,0,0.4-0.1,0.6C7.7,7,7.6,7.1,7.4,7.2S7.2,7.3,7,7.3
			c-0.2,0-0.3,0-0.5,0H5.3V5.2z"/>
	</g>
</g>
</svg>
