<?xml version="1.0" encoding="utf-8"?>
<!-- Generator: Adobe Illustrator 17.1.0, SVG Export Plug-In . SVG Version: 6.00 Build 0)  -->
<!DOCTYPE svg PUBLIC "-//W3C//DTD SVG 1.1//EN" "http://www.w3.org/Graphics/SVG/1.1/DTD/svg11.dtd">
<svg version="1.1" xmlns="http://www.w3.org/2000/svg" xmlns:xlink="http://www.w3.org/1999/xlink" x="0px" y="0px"
	 viewBox="0 0 16 16" enable-background="new 0 0 16 16" xml:space="preserve">
<g id="Guide_Box" display="none">
</g>
<g id="Icons">
	<g>
		<rect x="5" y="5.8" width="1.5" height="1.5"/>
		<rect x="9.5" y="5.8" width="1.5" height="1.5"/>
		<path d="M8,10.8C6.8,10.8,5.9,10,5.5,9H4.2c0.4,1.7,2,3,3.9,3s3.4-1.3,3.9-3h-1.3C10.2,10,9.2,10.8,8,10.8z"/>
		<path d="M8,1C4.2,1,1,4.2,1,8c0,3.9,3.1,7,7,7c3.9,0,7-3.1,7-7C15,4.2,11.9,1,8,1z M8,14c-3.3,0-6-2.7-6-6s2.7-6,6-6s6,2.7,6,6
			S11.3,14,8,14z"/>
	</g>
</g>
</svg>
