<?xml version="1.0" encoding="utf-8"?>
<!-- Generator: Adobe Illustrator 17.1.0, SVG Export Plug-In . SVG Version: 6.00 Build 0)  -->
<!DOCTYPE svg PUBLIC "-//W3C//DTD SVG 1.1//EN" "http://www.w3.org/Graphics/SVG/1.1/DTD/svg11.dtd">
<svg version="1.1" xmlns="http://www.w3.org/2000/svg" xmlns:xlink="http://www.w3.org/1999/xlink" x="0px" y="0px"
	 viewBox="0 0 16 16" enable-background="new 0 0 16 16" xml:space="preserve">
<g id="Guide_Box" display="none">
	<g display="inline">
		<path fill="#FF7BAC" d="M5-6V8H-9V-6H5 M6-7h-16V9H6V-7L6-7z"/>
	</g>
	<g display="inline">
		<path fill="#FF7BAC" d="M28.5-6V8h-14V-6H28.5 M29.5-7h-16V9h16V-7L29.5-7z"/>
	</g>
	<g display="inline">
		<path fill="#FF7BAC" d="M5,16.3v14H-9v-14H5 M6,15.3h-16v16H6V15.3L6,15.3z"/>
	</g>
	<g display="inline">
		<path fill="#FF7BAC" d="M28.5,16.3v14h-14v-14H28.5 M29.5,15.3h-16v16h16V15.3L29.5,15.3z"/>
	</g>
</g>
<g id="Icons">
	<g>
		<polygon points="10.4,4.5 9.4,5.5 11.8,8 9.4,10.5 10.4,11.5 14,8 		"/>
		<polygon points="5.5,4.5 2,8 5.5,11.5 6.6,10.5 4.1,8 6.6,5.5 		"/>
	</g>
</g>
</svg>
