<?xml version="1.0" encoding="utf-8"?>
<!-- Generator: Adobe Illustrator 17.1.0, SVG Export Plug-In . SVG Version: 6.00 Build 0)  -->
<!DOCTYPE svg PUBLIC "-//W3C//DTD SVG 1.1//EN" "http://www.w3.org/Graphics/SVG/1.1/DTD/svg11.dtd">
<svg version="1.1" xmlns="http://www.w3.org/2000/svg" xmlns:xlink="http://www.w3.org/1999/xlink" x="0px" y="0px"
	 viewBox="0 0 16 16" enable-background="new 0 0 16 16" xml:space="preserve">
<g id="Guide_Box" display="none">
	<g display="inline">
		<path fill="#FF7BAC" d="M25-3.7v14H11v-14H25 M26-4.7H10v16h16V-4.7L26-4.7z"/>
	</g>
</g>
<g id="Icons">
	<g>
		<path d="M14.9,9.2c-0.5,1.9-2,3-3.9,3c-1.3,0-2.5-0.4-3.2-1.6c-0.8,1.1-2.1,1.6-3.6,1.6C2.4,12.1,1,11.3,1,9.6
			c0-2.2,1.7-2.5,3.4-2.7c1.4-0.3,2.5-0.1,2.5-1.2c0-1-0.9-1.2-1.7-1.2C4.1,4.5,3.3,5,3.2,5.9H1.3C1.4,3.7,3.4,3,5.2,3
			c1.1,0,2.3,0.2,3,1.2C8.8,3.3,9.9,3,10.9,3c3,0,4.2,2.2,4,5.1H8.7c0,1.3,0.7,2.6,2.3,2.6c1,0,1.7-0.5,2.1-1.5H14.9z M6.9,7.6
			C6.5,8,5.4,8,4.5,8.1C3.7,8.2,3,8.5,3,9.5c0,0.9,0.9,1.1,1.8,1.1c1.1,0,2.2-0.6,2.2-1.7V7.6z M13.1,6.8c0-1.4-0.8-2.3-2.2-2.3
			c-1.4,0-2.1,1.1-2.2,2.3H13.1z"/>
	</g>
</g>
</svg>
