<?xml version="1.0" encoding="utf-8"?>
<!-- Generator: Adobe Illustrator 17.1.0, SVG Export Plug-In . SVG Version: 6.00 Build 0)  -->
<!DOCTYPE svg PUBLIC "-//W3C//DTD SVG 1.1//EN" "http://www.w3.org/Graphics/SVG/1.1/DTD/svg11.dtd">
<svg version="1.1" xmlns="http://www.w3.org/2000/svg" xmlns:xlink="http://www.w3.org/1999/xlink" x="0px" y="0px"
	 viewBox="0 0 16 16" enable-background="new 0 0 16 16" xml:space="preserve">
<g id="Guide_Box" display="none">
	<g display="inline">
		<path fill="#FF7BAC" d="M25-6V8H11V-6H25 M26-7H10V9h16V-7L26-7z"/>
	</g>
	<g display="inline">
		<path fill="#FF7BAC" d="M25,16.3v14H11v-14H25 M26,15.3H10v16h16V15.3L26,15.3z"/>
	</g>
</g>
<g id="Icons">
	<g>
		<rect x="2" y="8" width="12" height="1"/>
		<path d="M6.2,7H10C9.4,6.8,8.7,6.6,8.1,6.4C7.5,6.2,7.2,6.1,6.8,5.8C6.5,5.4,6.4,4.9,6.4,4.4c0-1.2,1-2.1,2.1-2.1
			c1,0,1.9,0.7,2.1,1.7l0,0.1L12,3.7l0-0.1c-0.4-1.6-1.8-2.8-3.5-2.8c-2,0-3.6,1.6-3.6,3.6c0,1,0.4,1.9,1.2,2.6H6.2z"/>
		<path d="M11.9,10h-1.7l0.1,0.2c0.2,0.3,0.3,0.7,0.3,1.1c0,1.2-1,2.1-2.1,2.1c-1,0-1.9-0.7-2.1-1.7l0-0.1L5,12.1l0,0.1
			c0.4,1.6,1.9,2.7,3.5,2.7c2,0,3.6-1.6,3.6-3.6C12.1,10.9,12.1,10.5,11.9,10L11.9,10z"/>
	</g>
</g>
</svg>
