<?xml version="1.0" encoding="utf-8"?>
<!-- Generator: Adobe Illustrator 17.1.0, SVG Export Plug-In . SVG Version: 6.00 Build 0)  -->
<!DOCTYPE svg PUBLIC "-//W3C//DTD SVG 1.1//EN" "http://www.w3.org/Graphics/SVG/1.1/DTD/svg11.dtd">
<svg version="1.1" xmlns="http://www.w3.org/2000/svg" xmlns:xlink="http://www.w3.org/1999/xlink" x="0px" y="0px"
	 viewBox="0 0 16 16" enable-background="new 0 0 16 16" xml:space="preserve">
<g id="Guide_Box" display="none">
	<g display="inline">
		<path fill="#FF7BAC" d="M11.3-6.1v14h-14v-14H11.3 M12.3-7.1h-16v16h16V-7.1L12.3-7.1z"/>
	</g>
	<g display="inline">
		<path fill="#FF7BAC" d="M11.7,16.3v14h-14v-14H11.7 M12.7,15.3h-16v16h16V15.3L12.7,15.3z"/>
	</g>
</g>
<g id="Icons">
	<g>
		<path d="M12.6,11.9C12.6,11.9,12.7,11.8,12.6,11.9c0.2-0.2,0.3-0.3,0.6-0.5l0.4-0.3c0.4-0.3,0.6-0.5,0.8-0.7
			c0.3-0.3,0.4-0.7,0.4-1.1c0-0.5-0.2-1-0.5-1.3c-0.4-0.3-0.8-0.5-1.4-0.5c-0.8,0-1.3,0.3-1.6,0.9C11.1,8.6,11,9,11,9.5l0,0.1h1.3
			l0-0.1c0-0.3,0-0.5,0.1-0.6c0.1-0.2,0.3-0.3,0.5-0.3c0.2,0,0.3,0.1,0.4,0.2c0.1,0.1,0.2,0.3,0.2,0.5c0,0.2-0.1,0.5-0.3,0.7
			c-0.1,0.1-0.4,0.4-0.9,0.7c-0.6,0.4-0.9,0.8-1.1,1.2c-0.2,0.3-0.2,0.7-0.3,1.1l0,0.1h3.9v-1.2H12.6z"/>
	</g>
	<polygon points="1.2,3 4.1,3 5.6,4.9 7.1,3 10.1,3 7.1,6.7 10.2,10.7 7.3,10.7 5.6,8.6 4,10.7 1,10.7 4.1,6.7 	"/>
</g>
</svg>
