<?xml version="1.0" encoding="utf-8"?>
<!-- Generator: Adobe Illustrator 17.1.0, SVG Export Plug-In . SVG Version: 6.00 Build 0)  -->
<!DOCTYPE svg PUBLIC "-//W3C//DTD SVG 1.1//EN" "http://www.w3.org/Graphics/SVG/1.1/DTD/svg11.dtd">
<svg version="1.1" xmlns="http://www.w3.org/2000/svg" xmlns:xlink="http://www.w3.org/1999/xlink" x="0px" y="0px"
	 viewBox="0 0 16 16" enable-background="new 0 0 16 16" xml:space="preserve">
<g id="Guide_Box" display="none">
	<g display="inline">
		<path fill="#FF7BAC" d="M8.6-10.7v14h-14v-14H8.6 M9.6-11.7h-16v16h16V-11.7L9.6-11.7z"/>
	</g>
	<g display="inline">
		<path fill="#FF7BAC" d="M8.8,12.5v14h-14v-14H8.8 M9.8,11.5h-16v16h16V11.5L9.8,11.5z"/>
	</g>
</g>
<g id="Icons">
	<g>
		<polygon points="14.1,2 12.2,2 11.2,3.2 10.2,2 8.3,2 10.2,4.4 8.2,7 10.1,7 11.2,5.6 12.3,7 14.2,7 12.2,4.4 		"/>
		<path d="M4.9,11.2c0.2-0.2,0.5-0.4,0.8-0.6C6.5,10,7.5,9.4,7.5,8c0-1.4-1.1-2.4-2.6-2.4c-0.8,0-1.5,0.3-2,0.8
			C2.4,6.9,2.1,7.7,2.2,8.6l0,0.3h2V8.6c0-0.3,0.1-1.2,0.7-1.2c0.4,0,0.7,0.3,0.7,0.7c0,0.5-0.4,0.8-1,1.2C4.4,9.3,4.3,9.3,4.2,9.4
			C3.1,10.2,2,10.9,2,12.7V13h5.6v-1.8H4.9z"/>
	</g>
</g>
</svg>
