<?xml version="1.0" encoding="utf-8"?>
<!-- Generator: Adobe Illustrator 17.1.0, SVG Export Plug-In . SVG Version: 6.00 Build 0)  -->
<!DOCTYPE svg PUBLIC "-//W3C//DTD SVG 1.1//EN" "http://www.w3.org/Graphics/SVG/1.1/DTD/svg11.dtd">
<svg version="1.1" xmlns="http://www.w3.org/2000/svg" xmlns:xlink="http://www.w3.org/1999/xlink" x="0px" y="0px"
	 viewBox="0 0 16 16" enable-background="new 0 0 16 16" xml:space="preserve">
<g id="Guide_Box" display="none">
	<g display="inline">
		<path fill="#FF7BAC" d="M8.5-6V8h-14V-6H8.5 M9.5-7h-16V9h16V-7L9.5-7z"/>
	</g>
	<g display="inline">
		<path fill="#FF7BAC" d="M8.5,16.3v14h-14v-14H8.5 M9.5,15.3h-16v16h16V15.3L9.5,15.3z"/>
	</g>
</g>
<g id="Icons">
	<g>
		<path d="M12.6,7C12.6,6.9,12.6,6.9,12.6,7c0.2-0.2,0.3-0.3,0.6-0.5l0.4-0.3c0.4-0.3,0.6-0.5,0.8-0.7c0.3-0.3,0.4-0.7,0.4-1.1
			c0-0.5-0.2-1-0.5-1.3c-0.4-0.3-0.8-0.5-1.4-0.5c-0.8,0-1.3,0.3-1.6,0.9C11.1,3.7,11,4.1,11,4.5l0,0.1h1.3l0-0.1
			c0-0.3,0-0.5,0.1-0.6c0.1-0.2,0.3-0.3,0.5-0.3c0.2,0,0.3,0.1,0.4,0.2c0.1,0.1,0.2,0.3,0.2,0.5c0,0.2-0.1,0.5-0.3,0.7
			c-0.1,0.1-0.4,0.4-0.9,0.7c-0.6,0.4-0.9,0.8-1.1,1.2C11,7.2,10.9,7.6,10.9,8l0,0.1h3.9V7H12.6z"/>
		<polygon points="10.1,6.3 7.1,6.3 5.6,8.2 4.1,6.3 1.2,6.3 4.1,10.1 1,14 4,14 5.6,11.9 7.3,14 10.2,14 7.1,10.1 		"/>
	</g>
</g>
</svg>
