<?xml version="1.0" encoding="utf-8"?>
<!-- Generator: Adobe Illustrator 17.1.0, SVG Export Plug-In . SVG Version: 6.00 Build 0)  -->
<!DOCTYPE svg PUBLIC "-//W3C//DTD SVG 1.1//EN" "http://www.w3.org/Graphics/SVG/1.1/DTD/svg11.dtd">
<svg version="1.1" xmlns="http://www.w3.org/2000/svg" xmlns:xlink="http://www.w3.org/1999/xlink" x="0px" y="0px"
	 viewBox="0 0 16 16" enable-background="new 0 0 16 16" xml:space="preserve">
<g id="Guide_Box" display="none">
</g>
<g id="Icons">
	<g>
		<path d="M10.9,10.3h1V12H9.3v-1c-0.5,0.8-1.5,1.2-2.4,1.2c-0.8,0-1.6-0.4-2.2-1C4.2,10.6,4,9.8,4,8.9V5.8H3V4.2h2.8v4.3
			c0,0.5,0,1,0.3,1.5c0.3,0.5,0.8,0.7,1.3,0.7c0.5,0,1-0.3,1.3-0.6c0.3-0.5,0.3-1,0.3-1.5V5.8h-1V4.2h2.8V10.3z"/>
	</g>
	<rect x="3" y="13" width="8.9" height="1"/>
</g>
</svg>
