<?xml version="1.0" encoding="utf-8"?>
<!-- Generator: Adobe Illustrator 17.1.0, SVG Export Plug-In . SVG Version: 6.00 Build 0)  -->
<!DOCTYPE svg PUBLIC "-//W3C//DTD SVG 1.1//EN" "http://www.w3.org/Graphics/SVG/1.1/DTD/svg11.dtd">
<svg version="1.1" xmlns="http://www.w3.org/2000/svg" xmlns:xlink="http://www.w3.org/1999/xlink" x="0px" y="0px"
	 viewBox="0 0 16 16" enable-background="new 0 0 16 16" xml:space="preserve">
<g id="Guide_Box" display="none">
	<g display="inline">
		<path fill="#FF7BAC" d="M11.5,11v14h-14V11H11.5 M12.5,10h-16v16h16V10L12.5,10z"/>
	</g>
</g>
<g id="Icons">
	<path fill="#737373" d="M6.2,12.9"/>
	<path fill="#737373" d="M6,12.8"/>
	<path fill="#737373" d="M6.2,13.2"/>
	<path fill="#737373" d="M6,13.1"/>
	<path fill="#737373" d="M6.2,12.9"/>
	<path fill="#737373" d="M6,12.8"/>
	<path fill="#737373" d="M6.2,13.2"/>
	<path fill="#737373" d="M6,13.1"/>
	<path fill="#737373" d="M6.2,13"/>
	<path fill="#737373" d="M6,12.9"/>
	<path fill="#737373" d="M6.2,13.2"/>
	<path fill="#737373" d="M6,13.1"/>
	<path fill="#737373" d="M6.2,13.2"/>
	<path fill="#737373" d="M6,13.1"/>
	<path d="M9.3,1.9C6.4,1.9,4.1,4,3.9,6.8h0l0,0.1c0,0.1,0,0.2,0,0.3c0,0.3,0,0.5,0,0.8l0,2L1.7,7.9L1,8.6L4.4,12l3.4-3.4L7,7.9
		l-2.2,2.2c0-0.2,0-0.4,0-0.6l0-0.9c0-0.3,0-0.5,0-0.8c0-0.8,0.1-1.5,0.4-2.2C5.9,4,7.5,2.9,9.3,2.9c2.5,0,4.5,2,4.5,4.5
		c0,1.4-0.6,2.6-1.6,3.4h0l0.6,0.8c1.2-1,2-2.5,2-4.2C14.8,4.3,12.3,1.9,9.3,1.9z"/>
</g>
</svg>
