<?xml version="1.0" encoding="utf-8"?>
<!-- Generator: Adobe Illustrator 17.1.0, SVG Export Plug-In . SVG Version: 6.00 Build 0)  -->
<!DOCTYPE svg PUBLIC "-//W3C//DTD SVG 1.1//EN" "http://www.w3.org/Graphics/SVG/1.1/DTD/svg11.dtd">
<svg version="1.1" xmlns="http://www.w3.org/2000/svg" xmlns:xlink="http://www.w3.org/1999/xlink" x="0px" y="0px"
	 viewBox="0 0 16 16" enable-background="new 0 0 16 16" xml:space="preserve">
<g id="Guide_Box" display="none">
	<g display="inline">
		<path fill="#FF7BAC" d="M5-3.7v14H-9v-14H5 M6-4.7h-16v16H6V-4.7L6-4.7z"/>
	</g>
	<g display="inline">
		<path fill="#FF7BAC" d="M28.5-3.7v14h-14v-14H28.5 M29.5-4.7h-16v16h16V-4.7L29.5-4.7z"/>
	</g>
</g>
<g id="Icons">
	<g>
		<rect x="2.5" y="7.2" transform="matrix(-0.7012 -0.713 0.713 -0.7012 8.0733 18.8396)" width="11" height="1"/>
		<path d="M6.6,12.8c-0.9,0.9-2.6,0.9-3.5,0c-0.5-0.5-0.7-1.1-0.7-1.8S2.6,9.7,3,9.2l1.9-1.9L4.2,6.6L2.3,8.5c-0.7,0.7-1,1.5-1,2.5
			s0.4,1.8,1,2.5c0.7,0.7,1.5,1,2.5,1s1.8-0.4,2.5-1l1.9-1.9l-0.7-0.7L6.6,12.8z"/>
		<path d="M13.6,2.2c-1.3-1.3-3.6-1.3-5,0L6.6,4.2l0.7,0.7l2.1-2.1c0.5-0.5,1.1-0.7,1.8-0.7c0.7,0,1.3,0.3,1.8,0.7s0.7,1.1,0.7,1.8
			c0,0.7-0.3,1.3-0.7,1.8l-2.1,2.1l0.7,0.7l2.1-2.1c0.7-0.7,1-1.5,1-2.5C14.7,3.7,14.3,2.8,13.6,2.2z"/>
		<rect x="5.1" y="9.6" transform="matrix(0.7071 -0.7071 0.7071 0.7071 -5.3388 7.2322)" width="2" height="1"/>
		<rect x="9.1" y="5.4" transform="matrix(0.7071 -0.7071 0.7071 0.7071 -1.253 8.8538)" width="2" height="1"/>
	</g>
</g>
</svg>
