<?xml version="1.0" encoding="utf-8"?><!DOCTYPE svg PUBLIC "-//W3C//DTD SVG 1.1//EN" "http://www.w3.org/Graphics/SVG/1.1/DTD/svg11.dtd"><svg width="180" height="162" viewBox="0 0 180 162" xmlns="http://www.w3.org/2000/svg" xmlns:xlink="http://www.w3.org/1999/xlink"><svg viewBox="-1 -1 18 18" width="18" height="18" id="anchor" x="18"><path d="M11 1H1v10l2-1.5V14h11V4l-3-3zm2 12H4V8.8L5 8l4 3V2h1v3h3v8z" fill="#696969"/></svg><svg viewBox="-1 -1 18 18" width="18" height="18" id="anchor-rtl" x="54" y="108"><path d="M11 1H1v10l2-1.5V14h11V4l-3-3zm2 12H4V8.8L5 8l4 3V2h1v3h3v8z" fill="#696969"/></svg><svg viewBox="-1 -1 18 18" width="18" height="18" id="bgcolor" y="18"><path d="M3 12h10v3H3zM9 2V1H8v.9L3 7l4.7 4.7L12 7.4V10c2 0 2-2 2-2V7L9 2zm-1.3 8.2L4.4 6.9 8 3.3V6h1V3.4l2.7 2.7-4 4.1z" fill="#696969"/></svg><svg viewBox="-1 -1 18 18" width="18" height="18" id="bidiltr" x="18" y="18"><path d="M10 3h5v1h-1v10h-1V4h-2v10h-1V9S7 9 7 6s3-3 3-3zM1.9 7L4 9l-2.1 2L3 12l3-3-3-3" fill="#696969"/></svg><svg viewBox="-1 -1 18 18" width="18" height="18" id="bidiltr-rtl" x="36"><path d="M1.6 6.4l2 2.1-1.9 2.1.7.7L5 8.4 2.3 5.7M11 3H6v1h1v10h1V4h2v10h1V9c1.7 0 3-1.3 3-3s-1.3-3-3-3z" fill="#696969"/></svg><svg viewBox="-1 -1 18 18" width="18" height="18" id="bidirtl" x="36" y="18"><path d="M14.1 7L12 9l2.1 2-1.1 1-3-3 3-3M4 3h5v1H8v10H7V4H5v10H4V9S1 9 1 6s3-3 3-3z" fill="#696969"/></svg><svg viewBox="-1 -1 18 18" width="18" height="18" id="bidirtl-rtl" y="36"><path d="M5.4 6.5l-.8-.7L2 8.6l2.7 2.7.7-.7-2-2M11 3H6v1h1v10h1V4h2v10h1V9c1.7 0 3-1.3 3-3s-1.3-3-3-3z" fill="#696969"/></svg><svg viewBox="-1 -1 18 18" width="18" height="18" id="blockquote" x="18" y="36"><path d="M12 8l2-5h-3L9 8v6h6V8M6 3H3L1 8v6h6V8H4" fill="#696969"/></svg><svg viewBox="-1 -1 18 18" width="18" height="18" id="bold" x="36" y="36"><path d="M6.1 6.3c.6-.9 1.6-1.4 2.7-1.4 2.4 0 4.5 2.1 4.5 4.6 0 1.2-.4 2.3-1.2 3.2-.8.9-1.9 1.5-3.1 1.5-1.1 0-2.2-.5-2.9-1.5V14H3v-1.9h1.1V3.9H3V2h3.1v4.3zM6 9.5c0 1.6 1.2 2.8 2.7 2.8 1.5 0 2.6-1.3 2.6-2.8 0-1.5-1.2-2.7-2.6-2.7C7.2 6.8 6 8 6 9.5z" fill="#696969"/></svg><svg viewBox="-1 -1 18 18" width="18" height="18" id="bookmark" x="54"><path d="M4 1h8v14l-4-3-4 3" fill="#696969"/></svg><svg viewBox="-1 -1 18 18" width="18" height="18" id="btn_locked" x="54" y="18"><path d="M7.5 10.3H5c-1.2 0-2.3-1-2.3-2.2s1-2.2 2.3-2.2h2.5V4H5C2.7 4 1 5.8 1 8s1.8 4 4 4h2.5v-1.7zM12 4H9.5v1.8H12c1.2 0 2.2 1 2.2 2.2s-1 2.2-2.2 2.2H9.5V12H12c2.2 0 4-1.8 4-4s-1.8-4-4-4z" fill="#696969"/><path d="M6 7h5v2H6z" fill="#696969"/></svg><svg viewBox="-1 -1 18 18" width="18" height="18" id="btn_reset" x="54" y="36"><path d="M10.2 6.5h-6l2.7-2.8-.9-.9-4.1 4.3-.1.1L6 11.6l.9-.9-2.7-2.9h6c1 0 1.9.8 1.9 1.9 0 1-.8 1.8-1.9 1.8H7.6v1.2h2.6c1.7 0 3.1-1.4 3.1-3.2 0-1.6-1.4-3-3.1-3z" fill="#696969"/></svg><svg viewBox="-1 -1 18 18" width="18" height="18" id="btn_unlocked" y="54"><path d="M7.5 10.2H5c-1.2 0-2.2-1-2.2-2.2s1-2.2 2.2-2.2h2.5V4H5C2.8 4 1 5.8 1 8s1.8 4 4 4h2.5v-1.8zM12 4H9.5v1.8H12c1.2 0 2.2 1 2.2 2.2s-1 2.2-2.2 2.2H9.5V12H12c2.2 0 4-1.8 4-4s-1.8-4-4-4z" fill="#696969"/></svg><svg viewBox="-1 -1 18 18" width="18" height="18" id="bulletedlist" x="18" y="54"><circle cx="2.5" cy="3.5" r="1.5" fill="#696969"/><circle cx="2.5" cy="7.4" r="1.5" fill="#696969"/><circle cx="2.5" cy="11.5" r="1.5" fill="#696969"/><path d="M6 3h9v1H6zM6 7h9v1H6zM6 11h9v1H6z" fill="#696969"/></svg><svg viewBox="-1 -1 18 18" width="18" height="18" id="bulletedlist-rtl" x="36" y="54"><circle cx="13.5" cy="3.5" r="1.5" fill="#696969"/><circle cx="13.5" cy="7.4" r="1.5" fill="#696969"/><circle cx="13.5" cy="11.5" r="1.5" fill="#696969"/><path d="M1 3h9v1H1zM1 7h9v1H1zM1 11h9v1H1z" fill="#696969"/></svg><svg viewBox="-1 -1 18 18" width="18" height="18" id="button_arrow" x="54" y="54"><path d="M4.5 6.5h6l-3 3" fill="#696969"/></svg><svg viewBox="-1 -1 18 18" width="18" height="18" id="button_arrow_rtl" x="72"><path d="M4.5 6.5h6l-3 3" fill="#696969"/></svg><svg viewBox="-1 -1 18 18" width="18" height="18" id="button_info_icon" x="72" y="18"><path d="M8 1C4.1 1 1 4.1 1 8s3.1 7 7 7 7-3.1 7-7-3.1-7-7-7zm0 1.9c.8 0 1.5.7 1.5 1.5S8.8 5.9 8 5.9s-1.5-.7-1.5-1.5.7-1.5 1.5-1.5zm2 9.1H6v-1h1V8H6V7h3v4h1v1z" fill="#696969"/></svg><svg viewBox="-1 -1 18 18" width="18" height="18" id="combo_arrow" x="72" y="36"><path d="M4.5 6.5h6l-3 3" fill="#696969"/></svg><svg viewBox="-1 -1 18 18" width="18" height="18" id="combo_arrow_rtl" x="72" y="54"><path d="M4.5 6.5h6l-3 3" fill="#696969"/></svg><svg viewBox="-1 -1 18 18" width="18" height="18" id="copy" y="72"><path d="M13 5V4h-3V1H3v11h3v3h7V5zM6 5v6H4V2h5v2H6v1zm6 9H7V5h5v9z" fill="#696969"/><path d="M8 7h3v1H8zM8 9h3v1H8z" fill="#696969"/></svg><svg viewBox="-1 -1 18 18" width="18" height="18" id="copy-rtl" x="18" y="72"><path d="M13 5V4h-3V1H3v11h3v3h7V5zM6 5v6H4V2h5v2H6v1zm6 9H7V5h5v9z" fill="#696969"/><path d="M8 7h3v1H8zM8 9h3v1H8z" fill="#696969"/></svg><svg viewBox="-1 -1 18 18" width="18" height="18" id="cut" x="36" y="72"><path d="M5.8 3.5c0-.9.8-1.7 1.7-1.7s1.7.8 1.7 1.7c0 .9-.8 1.7-1.7 1.7s-1.7-.8-1.7-1.7zM3.5 9.2c-.9 0-1.7-.8-1.7-1.7 0-.9.8-1.7 1.7-1.7.9 0 1.7.8 1.7 1.7 0 1-.7 1.7-1.7 1.7zM13 7H8V6c1.2-.2 2-1.2 2-2.5C10 2.1 8.9 1 7.5 1S5 2.1 5 3.5c0 1.2.8 2.2 2 2.5v1H6c-.2-1.1-1.3-2-2.5-2C2.1 5 1 6.2 1 7.6s1.1 2.5 2.5 2.5c1.3 0 2.3-.9 2.5-2.1h1v5l2 2V9h6l-2-2z" fill="#696969"/></svg><svg viewBox="-1 -1 18 18" width="18" height="18" id="cut-rtl" x="54" y="72"><path d="M5.8 3.5c0-.9.8-1.7 1.7-1.7s1.7.8 1.7 1.7c0 .9-.8 1.7-1.7 1.7s-1.7-.8-1.7-1.7zM3.5 9.2c-.9 0-1.7-.8-1.7-1.7 0-.9.8-1.7 1.7-1.7.9 0 1.7.8 1.7 1.7 0 1-.7 1.7-1.7 1.7zM13 7H8V6c1.2-.2 2-1.2 2-2.5C10 2.1 8.9 1 7.5 1S5 2.1 5 3.5c0 1.2.8 2.2 2 2.5v1H6c-.2-1.1-1.3-2-2.5-2C2.1 5 1 6.2 1 7.6s1.1 2.5 2.5 2.5c1.3 0 2.3-.9 2.5-2.1h1v5l2 2V9h6l-2-2z" fill="#696969"/></svg><svg viewBox="-1 -1 18 18" width="18" height="18" id="dialog_close_button" x="72" y="72"><path fill="white" d="M10.9 4.2l-3 2.9L5 4.2l-1 .9 3 3L4 11l1 1 2.9-3 3 3 .9-1-2.9-2.9 2.9-3"/></svg><svg viewBox="-1 -1 18 18" width="18" height="18" id="embed" x="90"><path d="M14.1 1H1v13h9v-1H2.1V2H14v7h1V1" fill="#696969"/><path d="M13 9h-1v2h-2v1h2v2h1v-2h2v-1h-2M7.1 8V3h-4v5h4zm-3-4h2v3h-2V4zM8.1 3h5v1h-5zM8.1 5h5v1h-5zM8.1 7h5v1h-5zM3.1 9h7v1h-7zM3.1 11h5v1h-5z" fill="#696969"/></svg><svg viewBox="-1 -1 18 18" width="18" height="18" id="find" x="90" y="18"><path d="M9.906 11.81l1.91-1.91 3.18 3.182-1.908 1.91zM6.1 1C3.3 1 1 3.3 1 6.2s2.3 5.1 5.1 5.1 5.1-2.3 5.1-5.1S8.9 1 6.1 1zM10 6.2C10 8.3 8.2 10 6.1 10S2.2 8.3 2.2 6.2 4 2.3 6.1 2.3 10 4 10 6.2z" fill="#696969"/></svg><svg viewBox="-1 -1 18 18" width="18" height="18" id="find-rtl" x="90" y="36"><path d="M9.906 11.81l1.91-1.91 3.18 3.182-1.908 1.91zM6.1 1C3.3 1 1 3.3 1 6.2s2.3 5.1 5.1 5.1 5.1-2.3 5.1-5.1S8.9 1 6.1 1zM10 6.2C10 8.3 8.2 10 6.1 10S2.2 8.3 2.2 6.2 4 2.3 6.1 2.3 10 4 10 6.2z" fill="#696969"/></svg><svg viewBox="-1 -1 18 18" width="18" height="18" id="flash" x="90" y="54"><path d="M11 1H3v14h11V4.2L11 1zm-4 9v1H6v2H5V8h3v1H6v1h1zm5 2v1H9V8h1v4h2zm1-6H4V2h6.6L13 4.6V6z" fill="#696969"/></svg><svg viewBox="-1 -1 18 18" width="18" height="18" id="horizontalrule" x="90" y="72"><path d="M3.3 5.3h1.4L5 6h1L4.5 2h-1L2 6h1l.3-.7zM4 3.4l.4 1h-.7l.3-1zM3.5 9L2 13h1l.3-.8h1.4l.3.8h1L4.5 9h-1zm.2 2.4l.4-1 .4 1h-.8zM7 4h7v1H7zM7 2h7v1H7zM7 12h7v1H7zM7 10h7v1H7zM2 7h12v1H2z" fill="#696969"/></svg><svg viewBox="-1 -1 18 18" width="18" height="18" id="ibmpermanentpen" y="90"><path d="M10.652 2.57l1.2-1.205 2.62 2.613-1.2 1.203zM5.283 13.226l-2.69-2.686 7.21-7.216L12.49 6.01zM1 15l2.3-.9-1.4-1.4" fill="#696969"/></svg><svg viewBox="-1 -1 18 18" width="18" height="18" id="ibmspellchecker" x="18" y="90"><path d="M3.8 6.3V4.7c0-.2 0-.3-.1-.4-.1-.1-.2-.2-.4-.2-.1-.1-.2-.1-.4-.2H2c-.2.1-.3.1-.4.2-.2.1-.3.2-.4.3-.1.1-.1.3-.1.5h.8c0-.2.1-.3.2-.3.1-.1.2-.1.4-.1h.2c.1 0 .1 0 .2.1l.1.1v.2l-.1.1c-.1 0-.1.1-.2.1s-.2 0-.3.1H2c-.1 0-.2 0-.4.1-.1 0-.2.1-.3.1-.1.1-.2.2-.2.3-.1.1-.1.3-.1.4 0 .2 0 .3.1.4.1.1.1.2.2.3.1.1.2.1.3.2H2c.2 0 .4 0 .5-.1.2 0 .4-.1.5-.3v.2h.8c0-.1-.1-.2-.1-.3.1 0 .1-.1.1-.2zM3 5.8V6c0 .1 0 .2-.1.2 0 .1-.1.1-.2.2-.1 0-.2.1-.4.1h-.2c0-.1-.1-.1-.1-.1l-.1-.1v-.2-.2l.1-.1s.1-.1.2-.1H3c.1 0 .1 0 .1-.1v.2zM5.6 6.6c.1.2.3.3.4.4.2 0 .4.1.6.1.1 0 .3 0 .4-.1.1-.1.3-.2.4-.3.1-.1.2-.3.3-.5.1-.2.1-.4.1-.7 0-.3 0-.5-.1-.7 0-.2-.1-.3-.3-.5-.1-.1-.2-.2-.3-.2-.2-.1-.3-.1-.5-.1s-.3 0-.5.1c-.2 0-.3.2-.4.3V2.9h-.8V7h.8v-.4zm.1-1.4c0-.1.1-.2.1-.3.1-.1.1-.2.2-.2.1-.1.2-.1.3-.1.1 0 .2 0 .3.1.1.1.2.1.2.2.1.1.2.2.2.3V6s-.1.1-.1.2c-.1.1-.2.1-.3.2 0 0-.1.1-.3.1-.1 0-.2 0-.3-.1l-.2-.2c0-.1-.1-.2-.1-.3v-.4-.3zM9.3 6.6c.1.1.3.2.5.3.2.1.4.1.6.1.4 0 .7-.1 1-.3.2-.2.4-.5.5-.9H11c0 .2 0 .4-.1.5-.1.1-.3.2-.4.2-.1 0-.2 0-.3-.1-.2-.1-.3-.2-.3-.3-.1-.1-.1-.2-.1-.3v-.3-.3c0-.1.1-.2.1-.3.1-.1.1-.2.2-.2.1-.1.2-.1.3-.1.3 0 .5.2.6.5h.8c0-.2-.1-.4-.1-.5-.1-.1-.2-.3-.3-.3-.1-.1-.3-.2-.4-.2-.2 0-.3-.1-.5-.1s-.5 0-.6.1c-.3 0-.4.2-.6.3-.1.1-.2.3-.3.5 0 .2-.1.4-.1.6 0 .3.1.5.1.6.1.2.2.4.3.5zM13.6 7l-5.2 5.2-2.3-2.4-1.5 1.4L8.4 15 15 8.4" fill="#696969"/></svg><svg viewBox="-1 -1 18 18" width="18" height="18" id="ibmtabkey" x="36" y="90"><path d="M14 1H1v14h14V1h-1zm0 13H2V2h12v12z" fill="#696969"/><path d="M4.1 9.6h.8V6.7H6V6H3.1v.7h1M6.7 9.6l.3-.8h1.3l.3.8h.8L8 6h-.8L5.9 9.6h.8zm.9-2.7l.5 1.3h-1l.5-1.3zM12.2 9.5c.2 0 .3-.1.4-.2l.3-.3s.1-.3.1-.5-.1-.4-.2-.6-.3-.3-.5-.3c.2-.1.3-.2.4-.3.1-.1.1-.3.1-.5s0-.3-.1-.4-.1-.2-.2-.3-.3 0-.4-.1H10v3.6h1.7c.2 0 .3-.1.5-.1zm-1.4-2.9H11.7s.1 0 .2.1l.1.1V7c0 .1 0 .3-.1.3-.1.1-.2.1-.3.1h-.8v-.8zm0 2.4V8h.9c.2 0 .3 0 .4.1.1.1.2.2.2.4v.2s-.3.1-.3.2-.1.1-.2.1h-1z" fill="#696969"/></svg><svg viewBox="-1 -1 18 18" width="18" height="18" id="iframe" x="54" y="90"><path d="M2 1h12v1H2zM2 13h12v1H2zM2 4v8h12V3H2v1zm11 0v7H3V4h10z" fill="#696969"/></svg><svg viewBox="-1 -1 18 18" width="18" height="18" id="image" x="72" y="90"><path d="M14 2H1v11h14V2h-1zm0 2.5c0 .8-.7 1.5-1.5 1.5S11 5.3 11 4.5 11.7 3 12.5 3s1.5.7 1.5 1.5zM2 12V8l3-3 5 5 2-2 2 2v2H2z" fill="#696969"/></svg><svg viewBox="-1 -1 18 18" width="18" height="18" id="indent" x="90" y="90"><path d="M1 5.9l.9-.9 2.9 2.9-2.9 2.9-.9-.9 2-2M6 2h1v11H6zM8 4h6v1H8zM8 6h4v1H8zM8 8h7v1H8zM8 10h4v1H8z" fill="#696969"/></svg><svg viewBox="-1 -1 18 18" width="18" height="18" id="indent-rtl" x="108"><path d="M15 5.9l-.9-.9-2.9 2.9 2.9 2.9.9-.9-2-2M9 2h1v11H9zM2 4h6v1H2zM4 6h4v1H4zM1 8h7v1H1zM4 10h4v1H4z" fill="#696969"/></svg><svg viewBox="-1 -1 18 18" width="18" height="18" id="info" x="108" y="18"><path d="M8 1C4.1 1 1 4.1 1 8s3.1 7 7 7 7-3.1 7-7-3.1-7-7-7zm0 1.9c.8 0 1.5.7 1.5 1.5S8.8 5.9 8 5.9s-1.5-.7-1.5-1.5.7-1.5 1.5-1.5zm2 9.1H6v-1h1V8H6V7h3v4h1v1z" fill="#696969"/></svg><svg viewBox="-1 -1 18 18" width="18" height="18" id="italic" x="108" y="36"><path d="M8.3 12.2h1.1L9.1 14h-4l.3-1.7h1.1l.8-4.7H6.2l.3-1.7h2.9l-1.1 6.3zM9.6 5H7.7l.4-2H10l-.4 2z" fill="#696969"/></svg><svg viewBox="-1 -1 18 18" width="18" height="18" id="justifyblock" x="108" y="54"><path d="M1 3h14v1H1zM1 6h14v1H1zM1 9h14v1H1zM1 12h14v1H1z" fill="#696969"/></svg><svg viewBox="-1 -1 18 18" width="18" height="18" id="justifycenter" x="108" y="72"><path d="M3 3h10v1H3zM5 6h7v1H5zM2 9h12v1H2zM5 12h7v1H5z" fill="#696969"/></svg><svg viewBox="-1 -1 18 18" width="18" height="18" id="justifyleft" x="108" y="90"><path d="M1 3h12v1H1zM1 6h8v1H1zM1 9h14v1H1zM1 12h8v1H1z" fill="#696969"/></svg><svg viewBox="-1 -1 18 18" width="18" height="18" id="justifyright" y="108"><path d="M3 3h12v1H3zM7 6h8v1H7zM1 9h14v1H1zM7 12h8v1H7z" fill="#696969"/></svg><svg viewBox="-1 -1 18 18" width="18" height="18" id="language" x="18" y="108"><path d="M5.9 5.5l-.9.9c.5.5.7 1.1.7 1.8S5.4 9.5 5 10l.9.9C6.6 10.2 7 9.2 7 8.2c0-1.1-.4-2-1.1-2.7z" fill="#696969"/><path d="M9.5 8.2c0-1.7-.7-3.3-1.8-4.4l-.9.8c.9.9 1.5 2.2 1.5 3.5 0 1.4-.6 2.6-1.5 3.5l.9.9c1.1-1 1.8-2.6 1.8-4.3z" fill="#696969"/><path d="M12 8.2c0-2.4-1-4.6-2.6-6.2l-.9.9c1.4 1.4 2.2 3.2 2.2 5.3 0 2.1-.8 3.9-2.2 5.3l.9.9C11 12.8 12 10.6 12 8.2z" fill="#696969"/></svg><svg viewBox="-1 -1 18 18" width="18" height="18" id="link" x="36" y="108"><path d="M14.2 1.8c-.6-.6-1.4-1-2.3-1-.9 0-1.7.3-2.3 1L7.9 3.5c-.6.6-1 1.5-1 2.3 0 .4.1.9.2 1.3-.4-.2-.8-.3-1.2-.3-.9 0-1.7.3-2.3 1L1.9 9.4c-.6.6-1 1.5-1 2.3 0 .9.3 1.7 1 2.3.6.6 1.4 1 2.3 1 .9 0 1.7-.3 2.3-1l1.6-1.6c1-1 1.2-2.4.7-3.6.5.2.9.3 1.4.3.9 0 1.7-.3 2.3-1l1.6-1.6c1.3-1.3 1.3-3.4.1-4.7zm-6.7 10l-1.6 1.6c-.5.5-1 .7-1.6.7-.6 0-1.2-.2-1.6-.7-.9-.9-.9-2.4 0-3.3l1.6-1.6c.5-.5 1-.7 1.6-.7.4 0 .8.1 1.2.4l-2 2 .7.7 2-2c.6.9.5 2.1-.3 2.9zm5.9-6l-1.6 1.6c-.5.5-1 .7-1.6.7-.5 0-.9-.1-1.3-.3L11 5.7l-.7-.7-2.1 2.1c-.5-.9-.4-2.1.4-2.9l1.6-1.6c.5-.5 1-.7 1.6-.7.6 0 1.2.2 1.6.7.9.8.9 2.3 0 3.2z" fill="#696969"/></svg><svg viewBox="-1 -1 18 18" width="18" height="18" id="maximize"><path d="M1 2v11h14V2H1zm13 10H2V5h12v7z" fill="#696969"/><path d="M7.5 11.2L11 7.7V10h1V6H8v1h2.3l-3.5 3.5" fill="#696969"/></svg><svg viewBox="-1 -1 18 18" width="18" height="18" id="newpage" x="72" y="108"><path d="M8 8H7v2H5v1h2v2h1v-2h2v-1H8" fill="#696969"/><path d="M9 1H3v14h10V5L9 1zm3 13H4V2h4v4h4v8z" fill="#696969"/></svg><svg viewBox="-1 -1 18 18" width="18" height="18" id="newpage-rtl" x="90" y="108"><path d="M8 8H7v2H5v1h2v2h1v-2h2v-1H8" fill="#696969"/><path d="M9 1H3v14h10V5L9 1zm3 13H4V2h4v4h4v8z" fill="#696969"/></svg><svg viewBox="-1 -1 18 18" width="18" height="18" id="numberedlist" x="108" y="108"><path d="M5 4h10v1H5zM5 10h10v1H5zM3 3V2H1v1h1v3H1v1h3V6H3M1 8v1h2v1H1v3h3v-1H2v-1h2V8H3" fill="#696969"/></svg><svg viewBox="-1 -1 18 18" width="18" height="18" id="numberedlist-rtl" x="126"><path d="M1 4h10v1H1zM1 10h10v1H1zM14 3V2h-2v1h1v3h-1v1h3V6h-1M12 8v1h2v1h-2v3h3v-1h-2v-1h2V8h-1" fill="#696969"/></svg><svg viewBox="-1 -1 18 18" width="18" height="18" id="outdent" x="126" y="18"><path d="M6 2h1v11H6zM8 4h6v1H8zM8 6h4v1H8zM8 8h7v1H8zM8 10h4v1H8zM4.4 5.4l-.7-.7L1 7.6l2.8 2.7.7-.7-2.1-2.1" fill="#696969"/></svg><svg viewBox="-1 -1 18 18" width="18" height="18" id="outdent-rtl" x="126" y="36"><path d="M1 5.9l.9-.9 2.9 2.9-2.9 2.9-.9-.9 2-2M6 2h1v11H6zM8 4h6v1H8zM8 6h4v1H8zM8 8h7v1H8zM8 10h4v1H8z" fill="#696969"/></svg><svg viewBox="-1 -1 18 18" width="18" height="18" id="pagebreak" x="126" y="54"><path d="M1 5.5l.9-.9 2.9 2.9-2.9 2.9-.9-.9 2-2M6 14h1V9h6v5h1V8H6M6 1h1v5h6V1h1v6H6" fill="#696969"/></svg><svg viewBox="-1 -1 18 18" width="18" height="18" id="pagebreak-rtl" x="126" y="72"><path d="M1 5.5l.9-.9 2.9 2.9-2.9 2.9-.9-.9 2-2M6 14h1V9h6v5h1V8H6M6 1h1v5h6V1h1v6H6" fill="#696969"/></svg><svg viewBox="-1 -1 18 18" width="18" height="18" id="paste" x="126" y="90"><path d="M10 4V1H3v11h3v3h7V4h-3zm2 10H7V5h5v9z" fill="#696969"/></svg><svg viewBox="-1 -1 18 18" width="18" height="18" id="paste-rtl" x="126" y="108"><path d="M10 4V1H3v11h3v3h7V4h-3zm2 10H7V5h5v9z" fill="#696969"/></svg><svg viewBox="-1 -1 18 18" width="18" height="18" id="pastefromword" y="126"><path d="M11 4V1H2v11h3v3h9V4h-3zm2 10H6V5h7v9z" fill="#696969"/><path d="M7 7h1v4H7zM8 11h1v1H8zM10 11h1v1h-1zM11 7h1v4h-1zM9 7h1v4H9z" fill="#696969"/></svg><svg viewBox="-1 -1 18 18" width="18" height="18" id="pastefromword-rtl" x="18" y="126"><path d="M11 4V1H2v11h3v3h9V4h-3zm2 10H6V5h7v9z" fill="#696969"/><path d="M7 7h1v4H7zM8 11h1v1H8zM10 11h1v1h-1zM11 7h1v4h-1zM9 7h1v4H9z" fill="#696969"/></svg><svg viewBox="-1 -1 18 18" width="18" height="18" id="pastetext" x="36" y="126"><path d="M10 4V1H3v11h3v3h7V4h-3zm2 10H7V5h5v9z" fill="#696969"/><path d="M8 7h3v1H8zM8 9h3v1H8z" fill="#696969"/></svg><svg viewBox="-1 -1 18 18" width="18" height="18" id="pastetext-rtl" x="54" y="126"><path d="M10 4V1H3v11h3v3h7V4h-3zm2 10H7V5h5v9z" fill="#696969"/><path d="M8 7h3v1H8zM8 9h3v1H8z" fill="#696969"/></svg><svg viewBox="-1 -1 18 18" width="18" height="18" id="preview" x="72" y="126"><path d="M2 1v13h12V1H2zm11 12H3v-3h10v3zm0-4H3V2h10v7z" fill="#696969"/><path d="M4 4h1v1H4zM4 6h1v1H4zM6 4h6v1H6zM6 6h6v1H6zM4 11h8v1H4z" fill="#696969"/></svg><svg viewBox="-1 -1 18 18" width="18" height="18" id="preview-rtl" x="90" y="126"><path d="M2 1v13h12V1H2zm11 12H3v-3h10v3zm0-4H3V2h10v7z" fill="#696969"/><path d="M4 4h1v1H4zM4 6h1v1H4zM6 4h6v1H6zM6 6h6v1H6zM4 11h8v1H4z" fill="#696969"/></svg><svg viewBox="-1 -1 18 18" width="18" height="18" id="print" x="108" y="126"><path d="M13 4V1H3v3H1v5h2v3l3 3h7V9h2V4h-2zm-1 5v5H7v-3H4V7h8v2zM4 4V2h8v2H4z" fill="#696969"/></svg><svg viewBox="-1 -1 18 18" width="18" height="18" id="redo" x="126" y="126"><path d="M2.8 9.6c0-2.9 2.1-5.2 4.9-5.4h3.2L8.8 2l.7-.7 3.4 3.4L9.5 8l-.7-.7L11 5.1H8.7c-.8 0-1.5.1-2.2.4-1.7.7-2.7 2.3-2.7 4.1 0 2.5 2 4.5 4.5 4.5 1.4 0 2.6-.6 3.4-1.6l.8.6c-1 1.2-2.5 2-4.2 2-3.1 0-5.5-2.5-5.5-5.5z" fill="#696969"/></svg><svg viewBox="-1 -1 18 18" width="18" height="18" id="redo-rtl" x="144"><path d="M2.8 9.6c0-2.9 2.1-5.2 4.9-5.4h3.2L8.8 2l.7-.7 3.4 3.4L9.5 8l-.7-.7L11 5.1H8.7c-.8 0-1.5.1-2.2.4-1.7.7-2.7 2.3-2.7 4.1 0 2.5 2 4.5 4.5 4.5 1.4 0 2.6-.6 3.4-1.6l.8.6c-1 1.2-2.5 2-4.2 2-3.1 0-5.5-2.5-5.5-5.5z" fill="#696969"/></svg><svg viewBox="-1 -1 18 18" width="18" height="18" id="removeformat" x="144" y="18"><path d="M2.5 7.6c.1.2.3.3.5.3.2.1.5.1.7.1.3 0 .6 0 .9-.1.3-.1.6-.2.8-.5v.2c0 .1 0 .2.1.2h1.4c-.1 0-.2-.2-.2-.4V4.2c0-.3-.1-.5-.2-.7-.2-.2-.3-.4-.5-.5-.3-.1-.5-.1-.7-.2h-.8c-.3 0-.6 0-.8.1-.3 0-.5.1-.8.2s-.4.3-.5.5c-.1.2-.2.5-.2.8h1.4c0-.3.1-.5.3-.6.2-.1.4-.2.6-.2h.3c.1 0 .2 0 .3.1.1 0 .1.1.2.2 0 .1.1.2.1.4 0 .1 0 .2-.1.3-.2.1-.3.2-.5.2s-.3.1-.5.1-.4.1-.6.1c-.2 0-.4.1-.6.1l-.6.3c-.1.1-.3.2-.4.4-.1.2-.1.4-.1.7 0 .3 0 .5.1.7.1.2.2.3.4.4zm.9-1.5c0-.1.1-.2.2-.2.1-.1.2-.1.3-.1.1 0 .2-.1.3-.1h.6c.1 0 .2 0 .3-.1.1 0 .2-.1.2-.1v.8c0 .1-.1.3-.1.4-.1.1-.2.2-.4.3-.1.1-.3.1-.6.1h-.3C3.8 7 3.7 7 3.6 7c-.1 0-.1-.1-.2-.2 0-.1-.1-.2-.1-.3.1-.2.1-.3.1-.4zM12 11.6h-.6c-.1 0-.2 0-.3.1-.1 0-.2.1-.3.1l-.2.2c0 .1-.1.2-.1.3 0 .1 0 .2.1.3 0 .1.1.1.2.2.1 0 .2.1.3.1h.3c.3 0 .5 0 .6-.1.1-.1.3-.2.3-.3.1-.1.1-.3.1-.4v-.8c-.1.1-.1.1-.2.1 0 .2-.1.2-.2.2z" fill="#696969"/><path d="M1 15h14V1L1 15zm11.6-1.1c0-.1 0-.2-.1-.2v-.2c-.2.2-.5.4-.8.5h-.9c-.2 0-.5 0-.7-.1-.2-.1-.4-.1-.5-.3-.2-.1-.3-.3-.4-.5-.1-.2-.1-.4-.1-.7 0-.3 0-.5.1-.7.1-.2.2-.3.4-.4.2-.1.3-.2.5-.2.2-.1.4-.1.6-.1.2 0 .4-.1.6-.1.2 0 .4 0 .5-.1.2 0 .3-.1.4-.2.1-.1.1-.2.1-.3 0-.1 0-.3-.1-.4 0-.1-.1-.2-.2-.2s-.2-.1-.3-.1h-.3c-.3 0-.5.1-.6.2-.2.1-.2.3-.3.6H9.3c0-.3.1-.6.2-.8.1-.2.3-.4.5-.5s.5-.2.7-.3c.3-.1.5-.1.8-.1.3 0 .5 0 .8.1.3 0 .5.1.7.2.2.1.4.2.5.4.1.2.2.4.2.7v3.2c0 .2.1.4.1.5h-1.2z" fill="#696969"/></svg><svg viewBox="-1 -1 18 18" width="18" height="18" id="replace" x="144" y="36"><path d="M3.1 4.8h1.3l.3.8h.8L4.2 2h-.8L2 5.6h.8l.3-.8zm.7-1.9l.5 1.3h-1l.5-1.3zM13.9 12.4c-.1-.2-.3-.3-.5-.3.2-.1.3-.2.4-.3.1-.1.1-.3.1-.5s0-.3-.1-.4-.1-.2-.2-.3-.2-.1-.4-.1H11V14h1.7c.2 0 .3 0 .5-.1s.3-.1.4-.2l.3-.3s.1-.2.1-.4 0-.4-.1-.6zm-2.1-1.3H12.7s.1 0 .2.1l.1.1v.2c0 .1 0 .3-.1.3-.1.1-.2.1-.3.1h-.8v-.8zm1.4 2.1c0 .1-.1.1-.1.1s-.1.1-.2.1h-1v-1h.9c.2 0 .3 0 .4.1.1.1.2.2.2.4-.2.2-.2.2-.2.3zM6.9 10.1l1.7 1.7H7.1c-.7 0-1.6-.1-2.3-.4-1.4-.8-2.1-2.6-1.6-4.3l-.7-.2c-.6 2 .2 4.2 1.9 5.2.8.4 1.8.5 2.6.5h1.6l-1.8 1.8.8.6 2.1-2.1.7-.7-2.8-2.8-.7.7zM12.7 3.9l.3-.3V6h1V2h-4v1h2.5l-.3.3c-1.7 1.6-3.2 3-1.6 6.4l.7-.3c-1.4-2.9-.3-4 1.4-5.5z" fill="#696969"/></svg><svg viewBox="-1 -1 18 18" width="18" height="18" id="save" x="144" y="54"><path d="M1 1v14h4v-1h6v1h1.4l2.5-2.5V1H1zm7 10c-1.7 0-3-1.3-3-3s1.3-3 3-3 3 1.3 3 3-1.3 3-3 3z" fill="#696969"/><circle cx="8" cy="8" r="1.2" fill="#696969"/></svg><svg viewBox="-1 -1 18 18" width="18" height="18" id="scayt" x="144" y="72"><path d="M3.8 6.3V4.7c0-.2 0-.3-.1-.4-.1-.1-.2-.2-.4-.2-.1-.1-.2-.1-.4-.2H2c-.2.1-.3.1-.4.2-.2.1-.3.2-.4.3-.1.1-.1.3-.1.5h.8c0-.2.1-.3.2-.3.1-.1.2-.1.4-.1h.2c.1 0 .1 0 .2.1l.1.1v.2l-.1.1c-.1 0-.1.1-.2.1s-.2 0-.3.1H2c-.1 0-.2 0-.4.1-.1 0-.2.1-.3.1-.1.1-.2.2-.2.3-.1.1-.1.3-.1.4 0 .2 0 .3.1.4.1.1.1.2.2.3.1.1.2.1.3.2H2c.2 0 .4 0 .5-.1.2 0 .4-.1.5-.3v.2h.8c0-.1-.1-.2-.1-.3.1 0 .1-.1.1-.2zM3 5.8V6c0 .1 0 .2-.1.2 0 .1-.1.1-.2.2-.1 0-.2.1-.4.1h-.2c0-.1-.1-.1-.1-.1l-.1-.1v-.2-.2l.1-.1s.1-.1.2-.1H3c.1 0 .1 0 .1-.1v.2zM5.6 6.6c.1.2.3.3.4.4.2 0 .4.1.6.1.1 0 .3 0 .4-.1.1-.1.3-.2.4-.3.1-.1.2-.3.3-.5.1-.2.1-.4.1-.7 0-.3 0-.5-.1-.7 0-.2-.1-.3-.3-.5-.1-.1-.2-.2-.3-.2-.2-.1-.3-.1-.5-.1s-.3 0-.5.1c-.2 0-.3.2-.4.3V2.9h-.8V7h.8v-.4zm.1-1.4c0-.1.1-.2.1-.3.1-.1.1-.2.2-.2.1-.1.2-.1.3-.1.1 0 .2 0 .3.1.1.1.2.1.2.2.1.1.2.2.2.3V6s-.1.1-.1.2c-.1.1-.2.1-.3.2 0 0-.1.1-.3.1-.1 0-.2 0-.3-.1l-.2-.2c0-.1-.1-.2-.1-.3v-.4-.3zM9.3 6.6c.1.1.3.2.5.3.2.1.4.1.6.1.4 0 .7-.1 1-.3.2-.2.4-.5.5-.9H11c0 .2 0 .4-.1.5-.1.1-.3.2-.4.2-.1 0-.2 0-.3-.1-.2-.1-.3-.2-.3-.3-.1-.1-.1-.2-.1-.3v-.3-.3c0-.1.1-.2.1-.3.1-.1.1-.2.2-.2.1-.1.2-.1.3-.1.3 0 .5.2.6.5h.8c0-.2-.1-.4-.1-.5-.1-.1-.2-.3-.3-.3-.1-.1-.3-.2-.4-.2-.2 0-.3-.1-.5-.1s-.5 0-.6.1c-.3 0-.4.2-.6.3-.1.1-.2.3-.3.5 0 .2-.1.4-.1.6 0 .3.1.5.1.6.1.2.2.4.3.5zM13.6 7l-5.2 5.2-2.3-2.4-1.5 1.4L8.4 15 15 8.4" fill="#696969"/></svg><svg viewBox="-1 -1 18 18" width="18" height="18" id="selectall" x="144" y="90"><path d="M14 2H2v12h12V2zm-1 1v1H3V3h10zM4 13h-.2L7 9.8V12h1V8H4v1h2.4L3 12.3V5h8v8H4zm8 0V5h1v8h-1z" fill="#696969"/></svg><svg viewBox="-1 -1 18 18" width="18" height="18" id="showblocks" x="144" y="108"><path d="M1 1v14h14V1H1zm13 13H2V2h12v12z" fill="#696969"/><path d="M5.3 8.6H7c.4 0 .8-.1 1.1-.2s.6-.3.8-.5.3-.5.4-.7c.1-.3.1-.6.1-.8 0-.3 0-.6-.1-.9-.1-.3-.3-.6-.5-.8-.2-.2-.4-.4-.8-.5-.3-.1-.6-.2-1.1-.2H3.7v7.1h1.6V8.6zm0-3.4H7c.2 0 .3.1.4.2l.3.3s.1.3.1.5 0 .4-.1.6c0 .2-.1.3-.3.4s-.2.1-.4.1H5.3V5.2z" fill="#696969"/></svg><svg viewBox="-1 -1 18 18" width="18" height="18" id="showblocks-rtl" x="144" y="126"><path d="M1 1v14h14V1H1zm13 13H2V2h12v12z" fill="#696969"/><path d="M5.3 8.6H7c.4 0 .8-.1 1.1-.2s.6-.3.8-.5.3-.5.4-.7c.1-.3.1-.6.1-.8 0-.3 0-.6-.1-.9-.1-.3-.3-.6-.5-.8-.2-.2-.4-.4-.8-.5-.3-.1-.6-.2-1.1-.2H3.7v7.1h1.6V8.6zm0-3.4H7c.2 0 .3.1.4.2l.3.3s.1.3.1.5 0 .4-.1.6c0 .2-.1.3-.3.4s-.2.1-.4.1H5.3V5.2z" fill="#696969"/></svg><svg viewBox="-1 -1 18 18" width="18" height="18" id="smiley" y="144"><path d="M5 5.8h1.5v1.5H5zM9.5 5.8H11v1.5H9.5zM8 10.8c-1.2 0-2.1-.8-2.5-1.8H4.2c.4 1.7 2 3 3.9 3s3.4-1.3 3.9-3h-1.3c-.5 1-1.5 1.8-2.7 1.8z" fill="#696969"/><path d="M8 1C4.2 1 1 4.2 1 8c0 3.9 3.1 7 7 7s7-3.1 7-7c0-3.8-3.1-7-7-7zm0 13c-3.3 0-6-2.7-6-6s2.7-6 6-6 6 2.7 6 6-2.7 6-6 6z" fill="#696969"/></svg><svg viewBox="-1 -1 18 18" width="18" height="18" id="source" x="18" y="144"><path d="M10.4 4.5l-1 1L11.8 8l-2.4 2.5 1 1L14 8M5.5 4.5L2 8l3.5 3.5 1.1-1L4.1 8l2.5-2.5" fill="#696969"/></svg><svg viewBox="-1 -1 18 18" width="18" height="18" id="source-rtl" x="36" y="144"><path d="M10.4 4.5l-1 1L11.8 8l-2.4 2.5 1 1L14 8M5.5 4.5L2 8l3.5 3.5 1.1-1L4.1 8l2.5-2.5" fill="#696969"/></svg><svg viewBox="-1 -1 18 18" width="18" height="18" id="specialchar" x="54" y="144"><path d="M14.9 9.2c-.5 1.9-2 3-3.9 3-1.3 0-2.5-.4-3.2-1.6-.8 1.1-2.1 1.6-3.6 1.6-1.8-.1-3.2-.9-3.2-2.6 0-2.2 1.7-2.5 3.4-2.7 1.4-.3 2.5-.1 2.5-1.2 0-1-.9-1.2-1.7-1.2-1.1 0-1.9.5-2 1.4H1.3C1.4 3.7 3.4 3 5.2 3c1.1 0 2.3.2 3 1.2.6-.9 1.7-1.2 2.7-1.2 3 0 4.2 2.2 4 5.1H8.7c0 1.3.7 2.6 2.3 2.6 1 0 1.7-.5 2.1-1.5h1.8zm-8-1.6c-.4.4-1.5.4-2.4.5-.8.1-1.5.4-1.5 1.4 0 .9.9 1.1 1.8 1.1C5.9 10.6 7 10 7 8.9V7.6zm6.2-.8c0-1.4-.8-2.3-2.2-2.3-1.4 0-2.1 1.1-2.2 2.3h4.4z" fill="#696969"/></svg><svg viewBox="-1 -1 18 18" width="18" height="18" id="spellchecker" x="72" y="144"><path d="M3.8 6.3V4.7c0-.2 0-.3-.1-.4-.1-.1-.2-.2-.4-.2-.1-.1-.2-.1-.4-.2H2c-.2.1-.3.1-.4.2-.2.1-.3.2-.4.3-.1.1-.1.3-.1.5h.8c0-.2.1-.3.2-.3.1-.1.2-.1.4-.1h.2c.1 0 .1 0 .2.1l.1.1v.2l-.1.1c-.1 0-.1.1-.2.1s-.2 0-.3.1H2c-.1 0-.2 0-.4.1-.1 0-.2.1-.3.1-.1.1-.2.2-.2.3-.1.1-.1.3-.1.4 0 .2 0 .3.1.4.1.1.1.2.2.3.1.1.2.1.3.2H2c.2 0 .4 0 .5-.1.2 0 .4-.1.5-.3v.2h.8c0-.1-.1-.2-.1-.3.1 0 .1-.1.1-.2zM3 5.8V6c0 .1 0 .2-.1.2 0 .1-.1.1-.2.2-.1 0-.2.1-.4.1h-.2c0-.1-.1-.1-.1-.1l-.1-.1v-.2-.2l.1-.1s.1-.1.2-.1H3c.1 0 .1 0 .1-.1v.2zM5.6 6.6c.1.2.3.3.4.4.2 0 .4.1.6.1.1 0 .3 0 .4-.1.1-.1.3-.2.4-.3.1-.1.2-.3.3-.5.1-.2.1-.4.1-.7 0-.3 0-.5-.1-.7 0-.2-.1-.3-.3-.5-.1-.1-.2-.2-.3-.2-.2-.1-.3-.1-.5-.1s-.3 0-.5.1c-.2 0-.3.2-.4.3V2.9h-.8V7h.8v-.4zm.1-1.4c0-.1.1-.2.1-.3.1-.1.1-.2.2-.2.1-.1.2-.1.3-.1.1 0 .2 0 .3.1.1.1.2.1.2.2.1.1.2.2.2.3V6s-.1.1-.1.2c-.1.1-.2.1-.3.2 0 0-.1.1-.3.1-.1 0-.2 0-.3-.1l-.2-.2c0-.1-.1-.2-.1-.3v-.4-.3zM9.3 6.6c.1.1.3.2.5.3.2.1.4.1.6.1.4 0 .7-.1 1-.3.2-.2.4-.5.5-.9H11c0 .2 0 .4-.1.5-.1.1-.3.2-.4.2-.1 0-.2 0-.3-.1-.2-.1-.3-.2-.3-.3-.1-.1-.1-.2-.1-.3v-.3-.3c0-.1.1-.2.1-.3.1-.1.1-.2.2-.2.1-.1.2-.1.3-.1.3 0 .5.2.6.5h.8c0-.2-.1-.4-.1-.5-.1-.1-.2-.3-.3-.3-.1-.1-.3-.2-.4-.2-.2 0-.3-.1-.5-.1s-.5 0-.6.1c-.3 0-.4.2-.6.3-.1.1-.2.3-.3.5 0 .2-.1.4-.1.6 0 .3.1.5.1.6.1.2.2.4.3.5zM13.6 7l-5.2 5.2-2.3-2.4-1.5 1.4L8.4 15 15 8.4" fill="#696969"/></svg><svg viewBox="-1 -1 18 18" width="18" height="18" id="strike" x="90" y="144"><path d="M2 8h12v1H2zM6.2 7H10c-.6-.2-1.3-.4-1.9-.6-.6-.2-.9-.3-1.3-.6-.3-.4-.4-.9-.4-1.4 0-1.2 1-2.1 2.1-2.1 1 0 1.9.7 2.1 1.7v.1l1.4-.4v-.1C11.6 2 10.2.8 8.5.8c-2 0-3.6 1.6-3.6 3.6 0 1 .4 1.9 1.2 2.6h.1zM11.9 10h-1.7l.1.2c.2.3.3.7.3 1.1 0 1.2-1 2.1-2.1 2.1-1 0-1.9-.7-2.1-1.7v-.1l-1.4.5v.1c.4 1.6 1.9 2.7 3.5 2.7 2 0 3.6-1.6 3.6-3.6 0-.4 0-.8-.2-1.3z" fill="#696969"/></svg><svg viewBox="-1 -1 18 18" width="18" height="18" id="subscript" x="108" y="144"><path d="M12.6 11.9s.1-.1 0 0c.2-.2.3-.3.6-.5l.4-.3c.4-.3.6-.5.8-.7.3-.3.4-.7.4-1.1 0-.5-.2-1-.5-1.3-.4-.3-.8-.5-1.4-.5-.8 0-1.3.3-1.6.9-.2.2-.3.6-.3 1.1v.1h1.3v-.1c0-.3 0-.5.1-.6.1-.2.3-.3.5-.3s.3.1.4.2c.1.1.2.3.2.5s-.1.5-.3.7c-.1.1-.4.4-.9.7-.6.4-.9.8-1.1 1.2-.2.3-.2.7-.3 1.1v.1h3.9v-1.2h-2.2zM1.2 3h2.9l1.5 1.9L7.1 3h3l-3 3.7 3.1 4H7.3L5.6 8.6 4 10.7H1l3.1-4" fill="#696969"/></svg><svg viewBox="-1 -1 18 18" width="18" height="18" id="subscript-rtl" x="126" y="144"><path d="M14.1 2h-1.9l-1 1.2-1-1.2H8.3l1.9 2.4-2 2.6h1.9l1.1-1.4L12.3 7h1.9l-2-2.6M4.9 11.2c.2-.2.5-.4.8-.6.8-.6 1.8-1.2 1.8-2.6 0-1.4-1.1-2.4-2.6-2.4-.8 0-1.5.3-2 .8s-.8 1.3-.7 2.2v.3h2v-.3c0-.3.1-1.2.7-1.2.4 0 .7.3.7.7 0 .5-.4.8-1 1.2-.2 0-.3 0-.4.1-1.1.8-2.2 1.5-2.2 3.3v.3h5.6v-1.8H4.9z" fill="#696969"/></svg><svg viewBox="-1 -1 18 18" width="18" height="18" id="superscript" x="144" y="144"><path d="M12.6 7c0-.1 0-.1 0 0 .2-.2.3-.3.6-.5l.4-.3c.4-.3.6-.5.8-.7.3-.3.4-.7.4-1.1 0-.5-.2-1-.5-1.3-.4-.3-.8-.5-1.4-.5-.8 0-1.3.3-1.6.9-.2.2-.3.6-.3 1v.1h1.3v-.1c0-.3 0-.5.1-.6.1-.2.3-.3.5-.3s.3.1.4.2c.1.1.2.3.2.5s-.1.5-.3.7c-.1.1-.4.4-.9.7-.6.4-.9.8-1.1 1.2-.2.3-.3.7-.3 1.1v.1h3.9V7h-2.2zM10.1 6.3h-3L5.6 8.2 4.1 6.3H1.2l2.9 3.8L1 14h3l1.6-2.1L7.3 14h2.9l-3.1-3.9" fill="#696969"/></svg><svg viewBox="-1 -1 18 18" width="18" height="18" id="superscript-rtl" x="162"><path d="M14.9 5.3h-3l-1.5 1.9-1.5-1.9H6l3 3.8L5.8 13h3l1.6-2.1 1.7 2.1H15l-3.1-3.9M3.1 5.7c.2-.1.4-.3.6-.4.6-.5 1.3-.9 1.3-2 0-1-.8-1.8-1.9-1.8-.6 0-1.1.2-1.4.6-.4.4-.6 1-.6 1.7V4h1.4v-.2c0-.2 0-.9.5-.9.3 0 .5.2.5.5s-.3.6-.7.8c-.1 0-.1.1-.2.2C1.8 5 1 5.5 1 6.7V7h4.1V5.7h-2z" fill="#696969"/></svg><svg viewBox="-1 -1 18 18" width="18" height="18" id="table" x="162" y="18"><path d="M1 2v11h14V2H1zm8 3v3H2V5h7zm-7 7V9h7v3H2zm8 0V9h4v3h-4zm4-4h-4V5h4v3z" fill="#696969"/></svg><svg viewBox="-1 -1 18 18" width="18" height="18" id="templates" x="162" y="36"><path d="M1 2h14v2H1zM10 5h5v8h-5zM2 5H1v8h8V5H2zm6 6.3L5.7 9 8 6.7v4.6zm-3-3L2.7 6h4.6L5 8.3zM2 6.7L4.3 9 2 11.3V6.7zm3 3L7.3 12H2.7L5 9.7z" fill="#696969"/></svg><svg viewBox="-1 -1 18 18" width="18" height="18" id="templates-rtl" x="162" y="54"><path d="M1 2h14v2H1zM10 5h5v8h-5zM2 5H1v8h8V5H2zm6 6.3L5.7 9 8 6.7v4.6zm-3-3L2.7 6h4.6L5 8.3zM2 6.7L4.3 9 2 11.3V6.7zm3 3L7.3 12H2.7L5 9.7z" fill="#696969"/></svg><svg viewBox="-1 -1 18 18" width="18" height="18" id="textcolor" x="162" y="72"><path fill="#696969" d="M4.2 2.4c.1 0 .1-.1 0 0 .1-.1.1-.1 0 0z"/><path d="M6.2 9.1h3.6l.7 1.9h2.4L9.1 1H6.9L3 11h2.4l.8-1.9zM8 3.7l1.4 3.5H6.6L8 3.7zM3 12h10v2H3z" fill="#696969"/></svg><svg viewBox="-1 -1 18 18" width="18" height="18" id="underline" x="162" y="90"><path d="M10.9 10.3h1V12H9.3v-1c-.5.8-1.5 1.2-2.4 1.2-.8 0-1.6-.4-2.2-1-.5-.6-.7-1.4-.7-2.3V5.8H3V4.2h2.8v4.3c0 .5 0 1 .3 1.5s.8.7 1.3.7 1-.3 1.3-.6c.3-.5.3-1 .3-1.5V5.8H8V4.2h2.8v6.1zM3 13h8.9v1H3z" fill="#696969"/></svg><svg viewBox="-1 -1 18 18" width="18" height="18" id="undo" x="162" y="108"><path d="M9.3 1.9C6.4 1.9 4.1 4 3.9 6.8V10L1.7 7.9l-.7.7L4.4 12l3.4-3.4-.8-.7-2.2 2.2V8.6v-.8c0-.8.1-1.5.4-2.2.7-1.6 2.3-2.7 4.1-2.7 2.5 0 4.5 2 4.5 4.5 0 1.4-.6 2.6-1.6 3.4l.6.8c1.2-1 2-2.5 2-4.2 0-3.1-2.5-5.5-5.5-5.5z" fill="#696969"/></svg><svg viewBox="-1 -1 18 18" width="18" height="18" id="undo-rtl" x="162" y="126"><path d="M9.3 1.9C6.4 1.9 4.1 4 3.9 6.8V10L1.7 7.9l-.7.7L4.4 12l3.4-3.4-.8-.7-2.2 2.2V8.6v-.8c0-.8.1-1.5.4-2.2.7-1.6 2.3-2.7 4.1-2.7 2.5 0 4.5 2 4.5 4.5 0 1.4-.6 2.6-1.6 3.4l.6.8c1.2-1 2-2.5 2-4.2 0-3.1-2.5-5.5-5.5-5.5z" fill="#696969"/></svg><svg viewBox="-1 -1 18 18" width="18" height="18" id="unlink" x="162" y="144"><path d="M11.454 12.008L3.74 4.165l.714-.7 7.713 7.842zM6.6 12.8c-.9.9-2.6.9-3.5 0-.5-.5-.7-1.1-.7-1.8s.2-1.3.6-1.8l1.9-1.9-.7-.7-1.9 1.9c-.7.7-1 1.5-1 2.5s.4 1.8 1 2.5c.7.7 1.5 1 2.5 1s1.8-.4 2.5-1l1.9-1.9-.7-.7-1.9 1.9zM13.6 2.2c-1.3-1.3-3.6-1.3-5 0l-2 2 .7.7 2.1-2.1c.5-.5 1.1-.7 1.8-.7s1.3.3 1.8.7.7 1.1.7 1.8-.3 1.3-.7 1.8l-2.1 2.1.7.7 2.1-2.1c.7-.7 1-1.5 1-2.5 0-.9-.4-1.8-1.1-2.4z" fill="#696969"/><path d="M5.056 10.414L6.47 9l.707.707-1.414 1.414zM9 6.238l1.414-1.415.707.707-1.413 1.415z" fill="#696969"/></svg></svg>